<svg width="782" height="477" viewBox="0 0 782 477" fill="none" xmlns="http://www.w3.org/2000/svg">
<path opacity="0.17" d="M245.109 281.062H214.352V334.138H139.846V281.062H28.4688V226.669L144.622 59.929H214.352V225.729H245.109V281.062ZM139.846 225.732V193.847C139.846 187.847 140.068 179.751 140.514 169.558C140.959 159.365 141.309 154.02 141.565 153.521H139.465C135.273 162.894 130.355 171.924 124.755 180.53L93.8068 225.73L139.846 225.732Z" fill="#5F2DED"/>
<path d="M224.762 281.078H194.005V334.157H119.499V281.078H8.12305V226.685L124.275 59.946H194.005V225.746H224.762V281.078ZM119.499 225.748V193.863C119.499 187.863 119.722 179.767 120.167 169.574C120.612 159.381 120.963 154.036 121.218 153.537H119.118C114.926 162.91 110.008 171.941 104.407 180.547L73.459 225.747L119.499 225.748Z" fill="#5F2DED"/>
<path opacity="0.17" d="M731.303 282.9L720.603 228.568L700.63 232.368L690.405 234.304L658.346 71.5129L589.869 84.5229L508.084 269.872L518.597 323.282L627.956 302.508L634.18 334.149H710.067L701.105 288.638L711.331 286.702L731.303 282.9ZM597.28 251.993L572.06 256.768L590.06 215.068L593.699 206.627C597.528 197.125 600.608 187.338 602.909 177.355L604.977 176.979C604.824 177.506 605.513 182.82 607.046 192.921C608.579 202.998 609.926 210.988 611.086 216.891L617.252 248.191L597.28 251.993Z" fill="#5F2DED"/>
<path d="M711.331 286.698L700.626 232.385L670.426 238.119L638.354 75.3298L589.869 84.5228L569.897 88.3228L488.111 273.688L498.624 327.08L518.597 323.28L607.984 306.323L613.46 334.147H689.348L681.133 292.43L701.105 288.63L711.331 286.698ZM590.06 215.07C590.424 217.119 590.788 218.98 591.114 220.691L597.28 251.991L552.069 260.582L573.726 210.424C577.559 200.929 580.639 191.148 582.937 181.171L585.005 180.777C584.853 181.321 585.542 186.635 587.073 196.719C588.165 203.902 589.161 210.019 590.06 215.07Z" fill="#5F2DED"/>
<path style="mix-blend-mode:multiply" opacity="0.22" d="M781.97 334.157H13.6029C13.6029 334.157 -27.7401 361.104 33.7249 365.666C95.1899 370.228 191.061 374.538 188.696 395.066C186.331 415.594 130.82 411.543 130.82 447.791C130.82 484.039 386.843 475.678 386.843 475.678C386.843 475.678 531.474 477.538 552.07 453.538C572.666 429.538 493.77 407.574 508.085 398.11C522.4 388.646 626.369 417.037 641.86 394.055C657.351 371.073 638.76 356.539 667.335 353.497C695.91 350.455 777.15 361.455 781.97 334.157Z" fill="url(#paint0_linear_1_232)"/>
<path d="M723.877 398.112C755.96 398.112 781.969 390.849 781.969 381.889C781.969 372.929 755.96 365.666 723.877 365.666C691.794 365.666 665.785 372.929 665.785 381.889C665.785 390.849 691.794 398.112 723.877 398.112Z" fill="#EFEFEF"/>
<path d="M105.345 408.251C133.389 408.251 156.122 402.728 156.122 395.915C156.122 389.102 133.389 383.579 105.345 383.579C77.302 383.579 54.5684 389.102 54.5684 395.915C54.5684 402.728 77.302 408.251 105.345 408.251Z" fill="#EFEFEF"/>
<path d="M396.401 433.093C428.252 433.093 454.073 437.973 454.073 443.993C454.073 450.013 428.252 454.893 396.401 454.893C364.55 454.893 338.729 450.013 338.729 443.993C338.729 437.973 364.549 433.093 396.401 433.093Z" fill="white"/>
<path d="M472.679 189.088C460.845 162.521 438.65 145.977 406.095 139.456C402.551 138.742 399.085 138.178 395.695 137.764C366.971 134.192 343.283 140.923 324.633 157.956C303.761 176.981 288.352 210.389 278.408 258.178C272.318 287.45 270.62 312.774 273.314 334.149H344.471C343.571 321.666 346.073 301.261 351.978 272.936C358.354 242.311 364.673 221.625 370.935 210.877C374.573 204.636 378.69 200.519 383.286 198.526C386.659 197.073 390.404 196.718 393.991 197.511C403.105 199.353 408.351 206.628 409.731 219.337C411.109 232.065 408.703 253.309 402.512 283.069C397.858 305.385 393.192 322.412 388.512 334.149H466.525C470.386 322.231 473.57 310.105 476.061 297.827C477.88 289.085 479.31 280.7 480.35 272.673C484.817 238.457 482.26 210.595 472.679 189.088Z" fill="#5F2DED" fill-opacity="0.22"/>
<path d="M452.744 185.103C442.116 161.246 423.102 145.467 395.7 137.764C392.617 136.9 389.438 136.129 386.144 135.471C352.71 128.759 325.557 134.926 304.685 153.971C283.832 173.016 268.43 206.423 258.479 254.192C256.449 263.912 254.91 273.206 253.864 282.073C251.546 301.531 251.572 318.89 253.94 334.149H325.002C324.902 333.697 324.849 333.249 324.791 332.776C323.298 320.613 325.711 299.338 332.03 268.95C338.406 238.325 344.731 217.646 351.006 206.911C357.268 196.157 364.953 191.701 374.061 193.544C377.589 194.179 380.823 195.925 383.291 198.526C386.834 202.248 388.979 207.851 389.802 215.352C391.181 228.079 388.775 249.323 382.583 279.084C377.374 304.05 372.146 322.405 366.9 334.149H445.276C449.728 320.958 453.354 307.502 456.134 293.86C465.689 247.912 464.559 211.66 452.744 185.103Z" fill="#5F2DED"/>
<g opacity="0.96">
<path opacity="0.96" d="M507.064 5.938L506.585 6.295L456.549 44.538L425.317 68.395L399.317 139.045L392.098 136.488L418.887 63.788L502.376 0L507.064 5.938Z" fill="#5F2DED"/>
</g>
<path d="M531.036 164.5C525.349 171.137 517.593 175.686 509.991 180.1L509.474 179.217C512.481 175.438 515.659 171.001 514.759 166.282C514.127 163.068 511.715 160.511 509.245 158.349C505.051 154.721 500.379 151.656 496.376 147.84C492.373 144.024 488.985 139.229 488.334 133.796C487.491 126.652 491.417 119.903 492.949 112.872C493.562 110.052 493.772 107.044 492.623 104.393C490.057 98.4151 482.302 97.0421 476.155 94.6361C470.655 92.4551 465.489 88.4131 463.955 82.7921C461.734 74.6331 467.655 66.2851 466.847 57.8821C466.477 54.9405 465.327 52.1515 463.516 49.8044C461.705 47.4572 459.299 45.6375 456.547 44.5341L506.583 6.29907C515.066 13.5181 522.383 23.0871 522.476 34.0101C522.515 40.9281 519.662 47.5101 517.632 54.1261C516.832 56.7961 516.138 59.5781 516.632 62.3041C517.417 66.4781 520.806 69.6361 523.932 72.5881C530.385 78.6601 536.876 86.0481 536.762 94.8281C536.647 104.679 528.087 113.459 529.581 123.197C530.538 129.42 535.421 134.383 537.374 140.361C540.055 148.633 536.723 157.864 531.036 164.5Z" fill="#E4DBFC" fill-opacity="0.37"/>
<defs>
<linearGradient id="paint0_linear_1_232" x1="390.985" y1="334.157" x2="390.985" y2="476.511" gradientUnits="userSpaceOnUse">
<stop stop-color="#EFF4FF"/>
<stop offset="1" stop-color="#5F2DED"/>
</linearGradient>
</defs>
</svg>
