<svg width="606" height="472" viewBox="0 0 606 472" fill="none" xmlns="http://www.w3.org/2000/svg">
<path d="M518.797 169.809C460.129 173.081 374.943 198.874 272.047 98.7451C187.31 16.2824 41.117 63.7619 8.11119 173.246C-26.9273 289.488 59.1418 384.333 121.35 420.945C198.001 466.057 350.003 472.441 433.076 440.481C516.422 408.414 574.759 351.185 593.739 306.781C623.95 236.114 592.49 165.713 518.797 169.809Z" fill="url(#paint0_linear_1_22)"/>
<path d="M599.164 184.327C582.92 133.576 518.658 94.2035 426.84 131.137C335.022 168.07 296.284 145.866 228.805 103.559C139.475 47.5557 23.4683 72.6724 3.29697 172.546C-18.9001 282.423 76.5177 368.838 128.97 401.557C181.423 434.276 357.084 498.659 520.277 381.596C586.679 333.965 619.498 247.872 599.164 184.327Z" fill="url(#paint1_linear_1_22)"/>
<g style="mix-blend-mode:hard-light">
<path d="M438.425 199.633H324.127C319.32 199.633 315.423 203.53 315.423 208.336V343.897C315.423 348.704 319.32 352.6 324.127 352.6H438.425C443.232 352.6 447.129 348.704 447.129 343.897V208.336C447.129 203.53 443.232 199.633 438.425 199.633Z" fill="#F4F4F4"/>
</g>
<path d="M395.377 263.08C393.889 258.918 391.595 255.09 388.627 251.815C385.66 248.539 382.076 245.88 378.081 243.99C374.085 242.099 369.757 241.014 365.342 240.796C360.927 240.579 356.513 241.233 352.351 242.721C348.189 244.209 344.361 246.503 341.085 249.47C337.81 252.438 335.151 256.022 333.26 260.017C331.37 264.013 330.285 268.341 330.067 272.756C329.849 277.17 330.503 281.585 331.992 285.747C332.247 286.458 332.523 287.162 332.82 287.845C336.306 295.848 342.765 302.183 350.834 305.513C358.903 308.844 367.95 308.91 376.066 305.697C384.182 302.483 390.733 296.243 394.335 288.292C397.937 280.34 398.31 271.301 395.373 263.08H395.377ZM372.182 298.174C366.157 300.339 359.533 300.129 353.657 297.587C347.78 295.044 343.093 290.359 340.547 284.484C340.326 283.969 340.115 283.448 339.926 282.91C338.245 278.211 337.996 273.118 339.209 268.277C340.423 263.436 343.045 259.064 346.743 255.713C350.442 252.362 355.051 250.183 359.988 249.452C364.925 248.72 369.968 249.469 374.479 251.604C378.991 253.739 382.768 257.163 385.333 261.445C387.897 265.726 389.135 270.672 388.889 275.656C388.644 280.641 386.925 285.441 383.951 289.449C380.977 293.457 376.882 296.494 372.182 298.174Z" fill="#72ACFB"/>
<path d="M339.584 266.89L331.543 264.381C333.633 257.698 337.753 251.832 343.332 247.599C348.91 243.366 355.669 240.976 362.668 240.762L362.916 249.183C357.67 249.347 352.605 251.14 348.424 254.313C344.243 257.486 341.153 261.882 339.584 266.89Z" fill="#385988"/>
<path d="M340.547 284.484L332.823 287.845C332.527 287.155 332.25 286.465 331.995 285.747C329.519 278.864 329.365 271.36 331.557 264.381L339.598 266.89C337.956 272.123 338.071 277.749 339.926 282.91C340.115 283.445 340.326 283.969 340.547 284.484Z" fill="#4772B0"/>
<path d="M338.041 296.224C335.898 293.704 334.139 290.88 332.823 287.845L340.547 284.484C341.535 286.758 342.852 288.874 344.457 290.765L338.041 296.224Z" fill="#5886C7"/>
<path d="M424.562 283.638C422.91 282.856 421.119 282.407 419.293 282.317C417.467 282.227 415.641 282.498 413.92 283.113C412.198 283.729 410.615 284.678 409.26 285.905C407.905 287.133 406.805 288.615 406.023 290.268C405.241 291.92 404.792 293.711 404.702 295.537C404.612 297.363 404.883 299.189 405.498 300.91C406.114 302.632 407.063 304.215 408.29 305.57C409.518 306.925 411 308.025 412.653 308.807C412.932 308.941 413.222 309.065 413.509 309.179C414.781 309.683 416.12 309.995 417.484 310.104C420.733 310.367 423.97 309.481 426.633 307.602C429.296 305.724 431.215 302.97 432.057 299.822C432.899 296.674 432.61 293.33 431.241 290.373C429.871 287.416 427.508 285.032 424.562 283.638ZM428.041 300.686C427.134 302.604 425.665 304.199 423.829 305.261C421.993 306.322 419.878 306.8 417.764 306.629C416.741 306.549 415.736 306.316 414.782 305.939C414.568 305.853 414.354 305.763 414.14 305.663C412.274 304.78 410.711 303.363 409.65 301.592C408.588 299.821 408.076 297.775 408.177 295.713C408.279 293.651 408.989 291.665 410.219 290.007C411.449 288.348 413.144 287.092 415.088 286.397C417.032 285.701 419.138 285.598 421.141 286.099C423.144 286.601 424.953 287.686 426.34 289.216C427.726 290.746 428.628 292.652 428.931 294.695C429.233 296.737 428.924 298.823 428.041 300.69V300.686Z" fill="#72ACFB"/>
<path d="M409.361 301.069L406.255 302.688C404.911 300.122 404.4 297.2 404.794 294.33C405.188 291.46 406.467 288.784 408.453 286.675L410.986 289.063C409.5 290.647 408.544 292.653 408.25 294.804C407.955 296.955 408.337 299.145 409.343 301.069H409.361Z" fill="#385988"/>
<path d="M414.782 305.935L413.509 309.179C413.222 309.065 412.932 308.941 412.653 308.807C409.915 307.518 407.674 305.369 406.272 302.688L409.378 301.069C410.428 303.079 412.107 304.691 414.157 305.659C414.354 305.759 414.568 305.849 414.782 305.935Z" fill="#4772B0"/>
<path d="M431.192 259.781C432.004 258.124 432.48 256.323 432.59 254.481C432.7 252.639 432.444 250.793 431.835 249.052C431.225 247.31 430.276 245.706 429.042 244.335C427.808 242.963 426.313 241.85 424.645 241.061C422.977 240.272 421.169 239.822 419.326 239.738C417.483 239.653 415.641 239.936 413.908 240.57C412.175 241.204 410.585 242.176 409.231 243.429C407.877 244.682 406.785 246.193 406.02 247.872C405.889 248.155 405.761 248.441 405.65 248.727C404.347 252.084 404.395 255.816 405.784 259.138C407.174 262.461 409.797 265.116 413.102 266.545C416.408 267.974 420.138 268.067 423.511 266.804C426.883 265.541 429.635 263.02 431.188 259.771L431.192 259.781ZM414.126 263.26C411.732 262.13 409.857 260.131 408.882 257.669C407.907 255.208 407.905 252.467 408.877 250.004C408.965 249.788 409.058 249.574 409.157 249.362C410.04 247.496 411.456 245.932 413.227 244.871C414.998 243.809 417.045 243.297 419.107 243.398C421.17 243.499 423.156 244.21 424.814 245.441C426.473 246.671 427.729 248.365 428.424 250.31C429.119 252.254 429.223 254.361 428.72 256.364C428.218 258.367 427.133 260.176 425.602 261.562C424.072 262.949 422.165 263.85 420.122 264.152C418.079 264.454 415.993 264.144 414.126 263.26Z" fill="#72ACFB"/>
<path d="M413.761 244.579L412.142 241.494C414.708 240.151 417.629 239.641 420.499 240.034C423.369 240.428 426.044 241.705 428.155 243.689L425.767 246.225C424.183 244.74 422.177 243.784 420.026 243.489C417.875 243.194 415.686 243.575 413.761 244.579Z" fill="#72ACFB"/>
<path d="M408.891 250.004L405.651 248.727C405.761 248.441 405.889 248.155 406.02 247.872C407.309 245.134 409.459 242.894 412.142 241.494L413.761 244.579C411.749 245.629 410.137 247.309 409.171 249.362C409.072 249.574 408.979 249.788 408.891 250.004Z" fill="#4772B0"/>
<path d="M404.726 252.706C404.835 251.342 405.147 250.001 405.651 248.727L408.891 250.004C408.517 250.959 408.285 251.964 408.201 252.986L404.726 252.706Z" fill="#5886C7"/>
<path d="M414.327 319.281H388.33V318.763H413.812V308.941H414.327V319.281Z" fill="#E5F2FD"/>
<path d="M365.37 319.281H331.557V318.763H364.852V302.688H365.37V319.281Z" fill="#E5F2FD"/>
<path d="M354.824 313.386H331.557V316.485H354.824V313.386Z" fill="#72ACFB"/>
<path d="M402.013 313.386H388.33V316.485H402.013V313.386Z" fill="#72ACFB"/>
<path d="M337.42 212.764H326.287V215.145H337.42V212.764Z" fill="#72ACFB"/>
<path d="M389.983 221.723H372.707V224.104H389.983V221.723Z" fill="#72ACFB"/>
<path d="M360.915 221.723H350.368V224.104H360.915V221.723Z" fill="#72ACFB"/>
<path d="M347.18 221.723H326.287V224.104H347.18V221.723Z" fill="#72ACFB"/>
<path d="M357.308 212.764H340.809V215.145H357.308V212.764Z" fill="#72ACFB"/>
<path d="M368.749 221.723H364.217V224.104H368.749V221.723Z" fill="#72ACFB"/>
<path d="M389.983 212.895H377.656V215.276H389.983V212.895Z" fill="#72ACFB"/>
<path d="M404.891 221.723H394.38V224.104H404.891V221.723Z" fill="#72ACFB"/>
<path d="M374.433 212.895H361.367V215.276H374.433V212.895Z" fill="#72ACFB"/>
<path d="M172.936 195.392C180.529 211.957 184.798 227.645 179.207 234.64C178.879 235.05 178.517 235.431 178.123 235.779C173.816 239.575 165.354 239.658 151.043 234.009C112.978 218.973 111.17 193.024 103.474 167.687C95.8815 142.663 69.3706 146.891 68.6977 147.004C130.468 125.498 160.05 167.307 172.936 195.392Z" fill="url(#paint2_linear_1_22)"/>
<path d="M179.207 234.651C178.879 235.061 178.517 235.442 178.123 235.789C170.973 231.483 157.283 222.351 150.826 212.098C147.782 207.267 145.225 201.817 142.509 196.065C137.387 185.176 132.08 173.923 122.838 165.288L123.873 164.173C133.343 173.012 138.712 184.4 143.889 195.419C146.581 201.138 149.121 206.535 152.123 211.294C158.404 221.292 172.236 230.458 179.207 234.651Z" fill="url(#paint3_linear_1_22)"/>
<path d="M166.321 202.173C165.872 203.274 165.586 203.898 165.551 203.971C165.437 203.36 165.32 202.756 165.206 202.173C160.13 176.155 153.338 173.436 132.977 150.676C112.16 127.406 124.128 105.713 124.128 105.713C193.888 125.87 171.062 190.56 166.321 202.173Z" fill="url(#paint4_linear_1_22)"/>
<path d="M166.321 202.173C165.872 203.274 165.586 203.898 165.551 203.971C165.437 203.36 165.32 202.756 165.206 202.173C167.467 179.682 153.897 153.285 149.632 148.551C145.221 143.647 142.502 136.903 141.477 134.36C141.304 133.939 141.132 133.539 141.087 133.445L142.07 132.89C142.239 133.227 142.389 133.572 142.522 133.925C143.527 136.413 146.194 143.025 150.46 147.778C155.878 153.796 168.412 180.317 166.321 202.173Z" fill="url(#paint5_linear_1_22)"/>
<path d="M299.258 339.466H172.591V343.704H299.258V339.466Z" fill="white"/>
<path d="M266.663 319.691H172.591V323.929H266.663V319.691Z" fill="url(#paint6_linear_1_22)"/>
<path d="M274.238 329.578H172.591V333.816H274.238V329.578Z" fill="url(#paint7_linear_1_22)"/>
<path d="M238.548 339.466H172.591V343.704H238.548V339.466Z" fill="url(#paint8_linear_1_22)"/>
<path d="M365.363 96.9505H276.851V102.655H365.363V96.9505Z" fill="white"/>
<path d="M409.267 96.9505H374.871V102.655H409.267V96.9505Z" fill="white"/>
<path d="M318.415 83.9539H276.851V89.6585H318.415V83.9539Z" fill="white"/>
<path d="M370.443 333.682H392.105C393.646 333.682 395.123 334.294 396.212 335.383C397.301 336.472 397.913 337.949 397.913 339.49V361.152C397.913 361.915 397.763 362.671 397.471 363.376C397.179 364.081 396.751 364.722 396.211 365.261C395.672 365.801 395.031 366.229 394.326 366.521C393.621 366.813 392.865 366.964 392.102 366.964H370.443C368.902 366.964 367.424 366.351 366.334 365.261C365.244 364.172 364.632 362.693 364.632 361.152V339.49C364.632 338.727 364.782 337.971 365.074 337.266C365.366 336.562 365.794 335.921 366.334 335.382C366.874 334.842 367.514 334.415 368.219 334.123C368.924 333.831 369.68 333.681 370.443 333.682Z" fill="white"/>
<path d="M382.853 343.704H379.702V356.945H382.853V343.704Z" fill="#C5CACF"/>
<path d="M387.895 351.9V348.752H374.653V351.9H387.895Z" fill="#C5CACF"/>
<g style="mix-blend-mode:hard-light">
<path d="M295.435 199.633H107.049C100.443 199.633 95.0878 204.988 95.0878 211.594V382.079C95.0878 388.685 100.443 394.04 107.049 394.04H295.435C302.041 394.04 307.396 388.685 307.396 382.079V211.594C307.396 204.988 302.041 199.633 295.435 199.633Z" fill="#F4F4F4"/>
</g>
<path d="M173.768 258.521C176.325 251.39 176.074 243.553 173.066 236.599C170.057 229.646 164.517 224.097 157.569 221.078C156.962 220.815 156.337 220.57 155.705 220.343C150.144 218.353 144.117 218.058 138.387 219.494C132.658 220.93 127.483 224.033 123.516 228.41C119.55 232.787 116.971 238.242 116.105 244.085C115.239 249.928 116.125 255.896 118.651 261.236C121.177 266.575 125.23 271.045 130.297 274.081C135.363 277.118 141.217 278.583 147.116 278.292C153.016 278.002 158.697 275.969 163.441 272.449C168.185 268.93 171.779 264.083 173.768 258.521ZM138.109 269.544C135.307 268.58 132.724 267.069 130.51 265.099C128.297 263.13 126.496 260.74 125.213 258.069C123.929 255.399 123.189 252.5 123.034 249.541C122.88 246.582 123.314 243.621 124.312 240.831C125.31 238.041 126.852 235.477 128.848 233.287C130.845 231.098 133.256 229.326 135.942 228.075C138.628 226.824 141.536 226.119 144.496 226C147.457 225.881 150.412 226.351 153.19 227.383C153.662 227.552 154.128 227.728 154.57 227.931C159.895 230.25 164.111 234.547 166.328 239.915C168.545 245.283 168.589 251.303 166.451 256.703C164.313 262.103 160.16 266.461 154.869 268.857C149.578 271.253 143.564 271.499 138.095 269.544H138.109Z" fill="#90C1FC"/>
<path d="M138.975 227.089L136.749 219.953C130.822 221.81 125.62 225.465 121.864 230.412C118.109 235.359 115.986 241.353 115.791 247.561L123.262 247.782C123.407 243.126 124.998 238.631 127.814 234.921C130.629 231.21 134.53 228.468 138.975 227.076V227.089Z" fill="#4372BD"/>
<path d="M154.584 227.931L157.569 221.078C156.962 220.815 156.337 220.57 155.705 220.343C149.598 218.148 142.941 218.011 136.749 219.953L138.975 227.089C143.618 225.631 148.611 225.734 153.19 227.383C153.662 227.552 154.128 227.735 154.584 227.931Z" fill="#4E85DE"/>
<path d="M165.002 225.709C162.767 223.807 160.262 222.246 157.569 221.078L154.584 227.931C156.604 228.807 158.483 229.977 160.161 231.403L165.002 225.709Z" fill="#72ACFB"/>
<path d="M268.824 319.146H258.46V354.647H268.824V319.146Z" fill="#72ACFB"/>
<path d="M253.415 329.106H243.051V354.65H253.415V329.106Z" fill="#72ACFB"/>
<path d="M283.77 302.695H273.407V354.647H283.77V302.695Z" fill="#72ACFB"/>
<path d="M282.1 276.74L281.917 275.621L254.564 280.097L245.698 298.995L216.209 301L206.657 315.091L184.111 314.532L184.083 315.667L207.247 316.24L216.837 302.094L246.444 300.086L255.337 281.122L282.1 276.74Z" fill="#72ACFB"/>
<path d="M248.676 229.436H278.155C278.598 229.436 279.036 229.349 279.445 229.179C279.854 229.01 280.225 228.761 280.538 228.448C280.851 228.135 281.099 227.763 281.268 227.354C281.437 226.945 281.524 226.507 281.524 226.064C281.524 225.171 281.169 224.314 280.537 223.683C279.905 223.051 279.049 222.696 278.155 222.696H248.683C248.241 222.696 247.802 222.783 247.393 222.952C246.984 223.121 246.613 223.369 246.299 223.682C245.986 223.994 245.738 224.366 245.568 224.775C245.399 225.184 245.312 225.622 245.312 226.064C245.311 226.507 245.398 226.945 245.567 227.354C245.736 227.762 245.983 228.134 246.296 228.447C246.608 228.76 246.979 229.009 247.388 229.178C247.796 229.348 248.234 229.436 248.676 229.436Z" fill="#4E85DE"/>
<path d="M248.676 241.19H278.155C279.049 241.19 279.905 240.835 280.537 240.204C281.169 239.572 281.524 238.715 281.524 237.822C281.524 237.379 281.437 236.941 281.268 236.532C281.099 236.123 280.851 235.751 280.538 235.438C280.225 235.125 279.854 234.877 279.445 234.707C279.036 234.538 278.598 234.45 278.155 234.45H248.683C248.24 234.45 247.802 234.537 247.393 234.706C246.983 234.875 246.611 235.124 246.298 235.437C245.985 235.75 245.737 236.122 245.567 236.531C245.398 236.941 245.311 237.379 245.312 237.822C245.312 238.715 245.666 239.571 246.297 240.203C246.928 240.834 247.784 241.189 248.676 241.19Z" fill="#72ACFB"/>
<path d="M248.676 252.945H278.155C279.049 252.945 279.905 252.59 280.537 251.958C281.169 251.326 281.524 250.47 281.524 249.576C281.524 248.683 281.169 247.826 280.537 247.195C279.905 246.563 279.049 246.208 278.155 246.208H248.683C248.241 246.208 247.802 246.294 247.393 246.464C246.984 246.633 246.613 246.881 246.299 247.193C245.986 247.506 245.738 247.878 245.568 248.287C245.399 248.695 245.312 249.134 245.312 249.576C245.312 250.469 245.666 251.325 246.297 251.957C246.928 252.588 247.784 252.944 248.676 252.945Z" fill="#72ACFB"/>
<path d="M195.323 235.261H178.465V234.616H195.054L203.93 225.74H214.801V226.389H204.196L195.323 235.261Z" fill="#72ACFB"/>
<path d="M211.298 264.709H189.605L182.575 257.679L183.031 257.22L189.871 264.064H211.298V264.709Z" fill="#72ACFB"/>
<path d="M228.022 230.023H205.535V232.784H228.022V230.023Z" fill="#4E85DE"/>
<path d="M216.775 258.159H198.674V260.916H216.775V258.159Z" fill="#4E85DE"/>
<path d="M47.5532 271.377C53.2163 268.668 58.8553 286.703 58.8553 286.703C68.4872 299.427 81.9428 282.499 80.628 301.521C78.3227 334.803 118.935 311.985 100.199 346.73C81.4631 381.475 116.743 366.377 105.099 394.396C93.4555 422.415 108.55 455.824 91.0294 442.096C91.0294 442.096 75.6032 408.276 59.6939 397.806C43.7846 387.335 69.2257 374.918 64.2493 360.703C57.0021 340.059 39.5985 340.87 52.1707 318.68C64.7428 296.49 28.2998 280.587 47.5532 271.377Z" fill="url(#paint9_linear_1_22)"/>
<path d="M96.5752 429.372C88.9829 424.03 80.093 386.814 79.565 364.644C79.2924 353.291 75.9379 348.559 72.9735 344.387C70.1436 340.397 67.7003 336.95 69.1222 329.04C71.845 313.921 64.6876 307.395 64.6358 307.33L65.4606 306.384C65.7816 306.664 73.2324 313.397 70.3749 329.264C69.0462 336.653 71.2411 339.745 74.0157 343.659C76.9284 347.765 80.5554 352.876 80.835 364.617C81.4044 388.405 90.4979 423.547 97.3137 428.344L96.5752 429.372Z" fill="white"/>
<path d="M99.4188 432.133C98.3391 432.125 97.2629 432.009 96.2059 431.788C93.2795 431.198 91.3745 429.652 90.5014 427.198C88.4549 421.331 93.1966 411.834 97.0583 407.248C97.1205 407.172 103.564 399.31 102.877 388.381C102.763 386.552 102.573 384.861 102.407 383.366C101.921 379.046 101.572 375.926 103.443 373.842C105.079 372.002 108.236 371.208 113.999 371.181C124.104 371.132 128.1 366.95 131.31 363.588C132.69 362.16 133.964 360.828 135.527 359.958C140.566 357.197 145.88 356.804 148.213 358.995C149.311 360.03 150.239 362.077 148.42 365.897C146.757 369.372 144.6 371.574 142.864 373.345C140.531 375.726 138.992 377.296 139.793 380.43C139.982 381.165 140.2 381.91 140.417 382.656C141.974 387.984 143.741 394.023 134.619 398.123C132.683 398.993 130.923 399.683 129.367 400.294C123 402.792 119.155 404.3 114.817 413.46C113.979 415.23 113.237 416.911 112.519 418.536C109.071 426.266 106.487 432.133 99.4188 432.133ZM136.103 361.042C134.723 361.801 133.543 363.023 132.193 364.437C128.815 367.971 124.601 372.375 113.975 372.42C108.678 372.444 105.693 373.134 104.354 374.659C102.873 376.326 103.194 379.211 103.643 383.211C103.812 384.716 103.988 386.427 104.123 388.288C104.84 399.717 98.2904 407.703 98.0108 408.038C94.2147 412.576 89.8836 421.607 91.6885 426.767C92.3787 428.772 93.9938 430.042 96.4544 430.539C105.044 432.264 107.415 426.901 111.346 417.998C112.063 416.365 112.809 414.678 113.658 412.89C118.206 403.282 122.451 401.616 128.88 399.086C130.423 398.482 132.169 397.795 134.078 396.939C142.201 393.288 140.735 388.277 139.182 382.97C138.961 382.21 138.74 381.451 138.547 380.702C137.57 376.885 139.499 374.918 141.939 372.42C143.696 370.629 145.684 368.599 147.261 365.311C148.082 363.585 148.765 361.245 147.319 359.875C145.425 358.077 140.6 358.571 136.103 361.028V361.042Z" fill="url(#paint10_linear_1_22)"/>
<path d="M96.3406 439.38L95.0878 439.315C95.1499 438.134 96.7305 410.36 107.884 402.233C120.118 393.316 123.976 383.732 125.83 377.299C127.994 369.707 139.013 367.692 139.479 367.609L139.699 368.844C139.592 368.865 129.001 370.818 127.038 377.641C125.15 384.253 121.171 394.099 108.64 403.248C97.9488 411.027 96.3578 439.097 96.3406 439.38Z" fill="url(#paint11_linear_1_22)"/>
<path d="M121.823 299.406C113.886 296.69 115.546 311.964 112.198 323.27C108.851 334.576 74.9269 328.201 89.1728 356.507C103.419 384.812 71.1687 365.97 80.7971 390.672C90.4255 415.375 81.6357 441.789 92.1027 435.07C102.57 428.351 97.9695 397.246 108.864 393.55C119.759 389.854 121.526 385.541 110.752 375.495C99.978 365.449 138.989 355.478 129.36 335.186C119.732 314.894 130.996 302.546 121.823 299.406Z" fill="url(#paint12_linear_1_22)"/>
<path d="M96.9755 433.886C95.9782 429.655 87.4645 392.446 95.4088 387.946C102.407 383.984 102.238 368.561 101.144 354.001C100.178 341.112 116.733 335.09 117.437 334.838L117.858 336.022C117.692 336.08 101.503 341.978 102.397 353.908C103.519 368.862 103.64 384.73 96.0265 389.04C89.9941 392.456 95.5468 422.36 98.1972 433.596L96.9755 433.886Z" fill="white"/>
<path d="M114.99 420.634L103.674 463.569H78.3813L67.0653 420.634H114.99Z" fill="url(#paint13_linear_1_22)"/>
<path d="M114.99 420.634C114.99 420.634 90.0735 425.31 90.0735 463.569H78.3779L67.0619 420.634H114.99Z" fill="url(#paint14_linear_1_22)"/>
<path d="M185.764 364.862H150.111V366.977H185.764V364.862Z" fill="#DCD0C8"/>
<path d="M154.891 468.735H158.014V372.485H154.891V468.735Z" fill="#6D6865"/>
<path d="M204.966 364.261H180.184V367.285H204.966V364.261Z" fill="#C6BBB5"/>
<path d="M197.266 338.475H187.883V366.977H197.266V338.475Z" fill="#948C87"/>
<path d="M274.628 367.012H137.322V372.485H274.628V367.012Z" fill="#A98E75"/>
<path d="M110.97 333.889C110.97 333.889 109.468 354.94 113.582 357.47C116.16 359.047 126.437 364.372 126.133 365.373C125.83 366.374 120.329 374.259 120.329 374.259C120.329 374.259 100.585 361.259 99.9503 357.159C99.3292 353.159 100.924 326.324 103.636 325.089C105.669 324.164 106.742 324.926 109.303 326.814C112.895 329.499 110.97 333.889 110.97 333.889Z" fill="#EBB35C"/>
<path d="M135.258 455.6C135.258 455.6 134.644 459.862 134.568 460.501C134.492 461.139 127.738 460.124 127.738 460.124L127.189 455.051C127.189 455.051 134.416 454.993 135.258 455.6Z" fill="#454971"/>
<path d="M134.637 459.952C134.637 459.952 136.78 462.52 138.85 463.641C140.921 464.763 144.169 465.201 145.407 466.361C146.291 467.196 148.624 470.799 140.027 470.726C131.431 470.654 127.293 471.233 126.372 469.853C125.45 468.473 127.704 459.666 127.704 459.666C127.704 459.666 129.726 460.397 134.637 459.952Z" fill="#2E3048"/>
<path d="M178.52 455.635C178.52 455.635 177.906 459.893 177.83 460.535C177.754 461.177 171 460.159 171 460.159L170.455 455.086C170.455 455.086 177.678 455.034 178.52 455.635Z" fill="#454971"/>
<path d="M177.902 459.993C177.902 459.993 180.042 462.561 182.113 463.679C184.183 464.797 191.796 465.719 193.018 466.878C193.902 467.713 195.372 471.082 183.279 470.764C174.69 470.543 170.541 471.275 169.62 469.894C168.699 468.514 170.952 459.703 170.952 459.703C170.952 459.703 172.871 460.487 177.902 459.993Z" fill="#2E3048"/>
<path d="M113.478 381.986C113.478 381.986 138.029 386.127 143.575 387.011C149.121 387.894 179.183 395.362 182.944 397.64C185.937 399.459 181.374 443.038 180.308 459.666H168.467L167.608 409.788C153.397 410.133 143.257 406.464 132.908 408.034C122.558 409.605 113.927 411.831 107.37 403.02C107.356 403.02 107.115 383.912 113.478 381.986Z" fill="#2E3048"/>
<path d="M137.674 459.704L126.137 458.993L125.012 409.788C118.893 409.939 116.798 409.553 111.846 408.952L102.528 387.294C110.693 388.926 136.859 395.524 140.345 397.647C143.34 399.459 138.733 443.076 137.674 459.704Z" fill="#2E3048"/>
<path d="M124.777 289.95C124.777 289.95 133.781 287.462 137.201 294.436C140.621 301.411 139.078 314.666 134.544 315.912C130.009 317.158 123.5 315.722 121.602 311.374C119.704 307.026 118.217 300.845 118.669 296.845C119.121 292.846 122.389 290.92 124.777 289.95Z" fill="#DBA585"/>
<path d="M132.204 314.542C132.204 314.542 132.104 319.857 132.69 320.992C133.277 322.128 120.16 321.838 120.16 321.838C120.16 321.838 122.23 315.46 121.05 310.021C119.89 304.641 132.204 314.542 132.204 314.542Z" fill="#DBA585"/>
<path d="M120.346 308.009C120.346 308.009 121.036 309.438 124.442 309.207C127.849 308.976 132.314 304.879 133.76 304.513C135.206 304.148 135.289 303.326 135.289 303.326L136.052 304.683L137.529 304.907C137.529 304.907 136.525 300.804 138.709 299.358C140.894 297.912 137.725 286.271 126.655 289.077C126.655 289.077 118.203 290.627 118.092 295.344C117.982 300.062 118.717 305.511 120.346 308.009Z" fill="#3E4148"/>
<path d="M133.377 320.854C133.377 320.854 133.343 318.69 132.363 318.48C131.382 318.269 122.051 316.993 120.846 317.465L120.329 320.323C120.329 320.323 122.648 321.752 133.377 320.854Z" fill="#DCD0C8"/>
<path d="M136.079 302.374C135.827 300.6 133.809 298.578 132.656 301.339C131.503 304.099 133.436 308.127 134.727 307.896C136.017 307.664 136.421 304.769 136.079 302.374Z" fill="#DBA585"/>
<path d="M172.457 346.423C172.512 346.451 172.519 346.454 172.457 346.423V346.423Z" fill="#363957"/>
<path d="M122.168 291.23C122.168 291.23 111.194 290.713 120.253 307.844L122.168 291.23Z" fill="#3E4148"/>
<path d="M97.7072 465.543L98.5216 467.838L133.011 457.15L131.358 452.501L97.7072 465.543Z" fill="#8C8581"/>
<path d="M134.195 418.018H130.275V455.514H134.195V418.018Z" fill="#8C8581"/>
<path d="M143.796 416.027H120.674V418.236H143.796V416.027Z" fill="#5D5955"/>
<path d="M167.066 465.543L166.252 467.838L131.762 457.15L133.277 452.211L167.066 465.543Z" fill="#8C8581"/>
<path d="M142.767 467.593V470.264L131.762 457.15L133.277 452.211L142.767 467.593Z" fill="#8C8581"/>
<path d="M170.289 468.735C170.289 469.372 170.1 469.996 169.746 470.526C169.392 471.056 168.889 471.469 168.3 471.713C167.711 471.957 167.063 472.021 166.437 471.896C165.812 471.772 165.238 471.465 164.787 471.014C164.336 470.563 164.029 469.989 163.905 469.364C163.781 468.738 163.844 468.09 164.088 467.501C164.332 466.912 164.745 466.409 165.275 466.055C165.806 465.701 166.429 465.512 167.066 465.512C167.921 465.512 168.741 465.851 169.345 466.456C169.95 467.06 170.289 467.88 170.289 468.735Z" fill="#B9AFAA"/>
<path d="M143.04 468.735C143.04 469.372 142.851 469.996 142.497 470.526C142.143 471.056 141.639 471.469 141.05 471.713C140.461 471.957 139.813 472.021 139.188 471.896C138.563 471.772 137.988 471.465 137.538 471.014C137.087 470.563 136.78 469.989 136.655 469.364C136.531 468.738 136.595 468.09 136.839 467.501C137.083 466.912 137.496 466.409 138.026 466.055C138.556 465.701 139.179 465.512 139.817 465.512C140.672 465.512 141.491 465.851 142.096 466.456C142.7 467.06 143.04 467.88 143.04 468.735Z" fill="#B9AFAA"/>
<path d="M100.93 468.735C100.93 469.372 100.741 469.996 100.387 470.526C100.033 471.056 99.5296 471.469 98.9406 471.713C98.3517 471.957 97.7036 472.021 97.0783 471.896C96.4531 471.772 95.8787 471.465 95.428 471.014C94.9772 470.563 94.6702 469.989 94.5458 469.364C94.4215 468.738 94.4853 468.09 94.7292 467.501C94.9732 466.912 95.3864 466.409 95.9164 466.055C96.4465 465.701 97.0697 465.512 97.7072 465.512C98.562 465.512 99.3819 465.851 99.9864 466.456C100.591 467.06 100.93 467.88 100.93 468.735Z" fill="#B9AFAA"/>
<path d="M155.954 407.655H108.819C106.71 407.655 104.999 409.365 104.999 411.475V412.203C104.999 414.313 106.71 416.024 108.819 416.024H155.954C158.064 416.024 159.774 414.313 159.774 412.203V411.475C159.774 409.365 158.064 407.655 155.954 407.655Z" fill="#DCD0C8"/>
<path d="M257.059 372.485H253.936V468.735H257.059V372.485Z" fill="#6D6865"/>
<path d="M229.278 295.04H155.871C153.765 295.04 152.058 296.748 152.058 298.854V348.394C152.058 350.5 153.765 352.207 155.871 352.207H229.278C231.384 352.207 233.092 350.5 233.092 348.394V298.854C233.092 296.748 231.384 295.04 229.278 295.04Z" fill="#B2A8A3"/>
<path d="M229.917 298.129H155.229V343.248H229.917V298.129Z" fill="#F4F6FF"/>
<path d="M226.6 347.5C226.6 348.784 225.251 349.826 223.587 349.826C221.924 349.826 220.578 348.79 220.578 347.5C220.578 346.209 221.927 345.181 223.587 345.181C225.247 345.181 226.6 346.219 226.6 347.5Z" fill="#8C8480"/>
<path d="M209.348 367.088V366.053C209.348 366.053 207.92 359.723 197.805 359.723C187.69 359.723 187.893 367.071 187.893 367.071L209.348 367.088Z" fill="#948C87"/>
<path d="M187.769 360.697C187.769 360.697 189.967 360.524 190.775 360.037C191.582 359.551 196.393 356.314 197.525 356.831C198.657 357.349 206.187 359.658 205.928 360.759C205.67 361.86 204.969 361.753 204.438 361.559C203.906 361.366 198.436 360.217 197.956 360.41C197.956 360.41 203.326 362.37 203.347 363.799C203.368 365.228 202.222 365.576 201.715 366.118C201.207 366.66 200.593 367.999 199.209 368.102C197.825 368.206 191.072 365.856 189.681 365.749C188.29 365.642 185.719 365.835 185.54 365.607C185.36 365.38 187.769 360.697 187.769 360.697Z" fill="#DBA585"/>
<path d="M147.761 323.853C140.755 322.621 133.377 320.854 133.377 320.854L120.329 320.323C120.329 320.323 108.354 322.959 103.636 325.089C103.187 325.292 103.187 335.787 101.959 338.524L105.869 346.772C105.869 346.772 108.126 363.116 108.595 370.384C108.813 373.721 107.988 402.63 107.988 402.63C107.988 402.63 109.161 403.206 118.068 404.19C126.975 405.174 149.228 403.845 149.366 402.782C149.504 401.719 145.055 363.613 144.859 361.639C144.558 358.609 145.735 344.611 145.735 344.611C147.413 346.865 151.692 357.035 156.151 361.887C158.773 364.738 171.76 366.484 174.21 366.563C179.538 366.743 189.26 367.802 189.543 367.285C189.771 366.974 190.392 358.657 189.781 358.453C189.25 358.274 171.194 357.235 166.569 354.781C164.878 353.884 159.822 342.855 159.822 342.855C159.822 342.855 151.626 325.589 147.761 323.853Z" fill="#EBB35C"/>
<path d="M122.641 349.477H99.5397C95.4876 349.477 92.2028 352.762 92.2028 356.814V394.455C92.2028 398.507 95.4876 401.792 99.5397 401.792H122.641C126.693 401.792 129.978 398.507 129.978 394.455V356.814C129.978 352.762 126.693 349.477 122.641 349.477Z" fill="#DCD0C8"/>
<path d="M123.283 413.943C117.716 413.943 113.195 412.072 109.855 408.383C102.304 400.045 103.664 385.392 103.722 384.771C103.783 384.221 104.058 383.717 104.488 383.368C104.918 383.02 105.468 382.855 106.018 382.91C106.569 382.964 107.076 383.234 107.429 383.66C107.783 384.086 107.953 384.634 107.905 385.185C107.905 385.351 106.687 398.644 112.981 405.57C115.525 408.376 118.897 409.739 123.283 409.739C123.84 409.739 124.375 409.961 124.769 410.355C125.163 410.749 125.385 411.284 125.385 411.841C125.385 412.398 125.163 412.933 124.769 413.327C124.375 413.721 123.84 413.943 123.283 413.943Z" fill="#DCD0C8"/>
<path d="M181.857 301.722H161.072C160.771 301.722 160.526 301.966 160.526 302.267V303.561C160.526 303.862 160.771 304.106 161.072 304.106H181.857C182.159 304.106 182.403 303.862 182.403 303.561V302.267C182.403 301.966 182.159 301.722 181.857 301.722Z" fill="#DEDFE6"/>
<path d="M181.857 306.836H161.072C160.771 306.836 160.526 307.08 160.526 307.381V308.675C160.526 308.977 160.771 309.221 161.072 309.221H181.857C182.159 309.221 182.403 308.977 182.403 308.675V307.381C182.403 307.08 182.159 306.836 181.857 306.836Z" fill="#DEDFE6"/>
<path d="M162.362 312.699H180.567C181.055 312.699 181.522 312.893 181.867 313.238C182.212 313.583 182.406 314.051 182.406 314.539V337.816C182.406 338.303 182.213 338.77 181.868 339.114C181.524 339.459 181.057 339.652 180.57 339.652H162.366C161.879 339.652 161.412 339.459 161.068 339.114C160.723 338.77 160.53 338.303 160.53 337.816V314.535C160.53 314.049 160.723 313.583 161.066 313.238C161.41 312.894 161.876 312.7 162.362 312.699Z" fill="#DEDFE6"/>
<path d="M222.87 301.722H189.729C188.122 301.722 186.82 303.024 186.82 304.631V336.743C186.82 338.35 188.122 339.652 189.729 339.652H222.87C224.476 339.652 225.779 338.35 225.779 336.743V304.631C225.779 303.024 224.476 301.722 222.87 301.722Z" fill="#DEDFE6"/>
<path d="M475.137 296.183L453.737 307.944L432.244 274.124L458.241 265.096L475.137 296.183Z" fill="#2E3048"/>
<path d="M473.781 295.165L453.765 306.167L433.67 274.538L457.979 266.093L473.781 295.165Z" fill="#DCD0C8"/>
<path d="M481.111 289.26C481.111 289.26 477.384 287.479 475.752 286.547C474.119 285.616 469.909 284.339 469.571 284.035C469.233 283.731 457.106 282.982 456.371 282.347C455.636 281.712 454.918 283.838 458.062 284.525C461.206 285.212 465.578 286.896 465.816 288.124C466.054 289.353 462.589 289.646 462.241 290.658C461.892 291.669 462.337 291.441 462.834 291.658C463.331 291.876 466.955 289.867 468.553 290.437C470.151 291.006 472.587 290.219 473.809 290.637C475.03 291.054 480.977 293.053 480.977 293.053L481.111 289.26Z" fill="#DBA585"/>
<path d="M452.695 303.703C452.695 303.703 449.565 300.886 448.05 299.706C446.535 298.526 443.695 295.061 443.277 294.875C442.86 294.688 437.431 283.538 436.548 283.089C435.664 282.641 437.383 281.143 439.253 283.838C441.124 286.534 444.43 289.998 445.669 289.747C446.908 289.495 445.841 286.109 446.663 285.384C447.484 284.66 447.439 285.174 447.836 285.557C448.233 285.94 447.753 290.14 448.913 291.424C450.072 292.708 450.276 295.31 451.149 296.3C452.022 297.29 456.229 302.098 456.229 302.098L452.695 303.703Z" fill="#DBA585"/>
<path d="M520.073 454.237C520.073 454.237 520.764 458.937 520.836 459.641C520.909 460.345 528.366 459.227 528.366 459.227L528.97 453.633C528.97 453.633 521.019 453.574 520.073 454.237Z" fill="#454971"/>
<path d="M520.764 459.051C520.764 459.051 518.407 461.881 516.125 463.117C513.844 464.352 510.259 464.842 508.909 466.119C507.936 467.04 505.362 471.009 514.838 470.93C524.315 470.85 528.884 471.489 529.898 469.967C530.913 468.445 528.428 458.734 528.428 458.734C528.428 458.734 526.189 459.534 520.764 459.051Z" fill="#2E3048"/>
<path d="M466.741 454.237C466.741 454.237 467.431 458.937 467.5 459.641C467.569 460.345 475.03 459.227 475.03 459.227L475.634 453.633C475.634 453.633 467.669 453.574 466.741 454.237Z" fill="#454971"/>
<path d="M467.421 459.051C467.421 459.051 465.064 461.881 462.779 463.117C460.495 464.352 452.105 465.367 450.752 466.644C449.779 467.565 448.16 471.278 461.492 470.93C470.968 470.681 475.538 471.489 476.552 469.967C477.567 468.445 475.082 458.734 475.082 458.734C475.082 458.734 472.97 459.59 467.421 459.051Z" fill="#2E3048"/>
<path d="M513.92 333.509C513.92 333.509 520.919 344.625 520.394 354.671C519.87 364.717 522.931 375.688 523.983 386.182C525.153 397.885 529.95 425.586 530.123 431.847C530.295 438.107 529.381 458.075 529.381 458.075L519.783 458.292C519.783 458.292 511.722 409.864 509.634 404.922C507.546 399.98 497.193 364.755 496.844 360.8C496.496 356.845 513.92 333.509 513.92 333.509Z" fill="#2E3048"/>
<path d="M477.094 335.014C477.094 335.014 471.821 362.553 471.127 368.703C470.434 374.853 469.968 398.461 469.616 402.306C469.264 406.15 467.297 452.598 465.44 458.309H477.712C477.712 458.309 487.13 424.541 487.13 408.566C487.13 392.591 494.408 373.831 499.105 363.288C503.802 352.745 514.552 352.497 517.444 332.94C517.444 332.94 481.001 328.812 477.094 335.014Z" fill="#2E3048"/>
<path d="M502.249 240.058C502.249 240.058 492.858 236.552 488.527 243.699C484.196 250.846 484.614 265.158 489.349 266.918C494.084 268.678 501.193 267.756 503.615 263.284C506.038 258.811 508.226 252.348 508.122 248.023C508.019 243.699 504.713 241.308 502.249 240.058Z" fill="#DBA585"/>
<path d="M490.367 267.246C490.367 267.246 490.76 269.779 490.111 271.042C489.463 272.305 502.28 272.326 502.28 272.326C502.28 272.326 503.315 265.531 505.292 259.791C507.27 254.052 490.367 267.246 490.367 267.246Z" fill="#DBA585"/>
<path d="M505.293 259.778C505.293 259.778 504.406 261.237 500.806 260.671C497.207 260.105 492.793 255.302 491.288 254.774C489.784 254.246 489.766 253.362 489.766 253.362L488.821 254.743L487.223 254.846C487.223 254.846 488.683 250.55 486.481 248.796C484.279 247.043 488.766 234.896 500.34 238.94C500.34 238.94 509.23 241.39 508.909 246.446C508.588 251.502 507.28 257.258 505.293 259.778Z" fill="#3E4148"/>
<path d="M489.359 270.88C489.359 270.88 489.401 268.492 490.481 268.264C491.561 268.036 502.421 266.99 503.747 267.511V270.279C503.747 270.279 501.182 271.867 489.359 270.88Z" fill="#DCD0C8"/>
<path d="M489.994 251.523C490.198 250.674 492.355 248.251 493.179 250.833C494.004 253.414 491.93 256.92 490.764 256.62C489.597 256.32 489.483 253.673 489.994 251.523Z" fill="#DBA585"/>
<path d="M446.263 299.071H446.28C446.221 299.102 446.197 299.106 446.263 299.071Z" fill="#363957"/>
<path d="M521.799 360.006C521.799 360.006 516.039 361.701 506.221 362.767C496.403 363.834 471.866 362.377 471.71 361.214C471.555 360.051 476.987 318.014 476.68 315.847C476.373 313.68 476.204 305.97 476.204 305.97C476.083 308.085 473.929 316.716 471.331 321.424C470.392 323.125 467.241 328.453 465.723 327.242C458.372 321.375 446.991 299.258 446.269 299.071C446.873 298.809 451.66 296.604 452.333 296.379C452.923 296.183 458.224 301.798 461.437 305.28C462.869 306.829 463.887 307.954 463.887 307.954C464.815 305.884 468.194 292.718 469.246 288.166C471.614 277.903 471.248 277.468 471.248 277.468C478.433 275.294 489.338 270.873 489.338 270.873L503.726 270.286C503.726 270.286 516.933 273.192 522.134 275.542C522.627 275.763 522.631 287.32 523.983 290.354L519.67 299.451C519.67 299.451 517.181 317.469 516.664 325.482C516.439 329.168 521.799 360.006 521.799 360.006Z" fill="#03B8FE"/>
<path d="M524.594 305.366C524.218 306.577 522.524 307.602 521.402 308.051C520.673 308.346 519.874 308.427 519.1 308.282L518.538 308.179L508.678 306.349C508.678 306.349 506.521 281.502 522.137 275.549C522.562 275.684 528.045 294.24 524.594 305.366Z" fill="#03B8FE"/>
<path d="M521.402 308.051C520.673 308.346 519.874 308.427 519.1 308.282L518.538 308.178L519.511 295.479L521.402 308.051Z" fill="#03B8FE"/>
<path d="M463.901 307.954L462.696 313.062C462.696 313.062 461.388 307.937 461.451 305.28C462.883 306.829 463.901 307.954 463.901 307.954Z" fill="#03B8FE"/>
<path d="M504.923 240.9C504.923 240.9 517.226 239.361 505.13 259.916L504.923 240.9Z" fill="#3E4148"/>
<path d="M442.138 272.312L440.889 270.162L450.742 266.763L451.995 268.899L442.138 272.312Z" fill="#2E3048"/>
<path d="M524.668 0H495.776V2.02576H524.668V0Z" fill="white"/>
<g style="mix-blend-mode:hard-light">
<path d="M496.349 27.6843H190.746C181.841 27.6843 174.622 34.9029 174.622 43.8075V136.996C174.622 145.901 181.841 153.119 190.746 153.119H496.349C505.254 153.119 512.473 145.901 512.473 136.996V43.8075C512.473 34.9029 505.254 27.6843 496.349 27.6843Z" fill="#F4F4F4"/>
</g>
<path d="M483.66 63.6924H442.371V67.8337H483.66V63.6924Z" fill="#BFD4FC"/>
<path d="M489.827 76.5165H442.371V80.6578H489.827V76.5165Z" fill="#BFD4FC"/>
<path d="M466.853 89.2716H442.299V93.4129H466.853V89.2716Z" fill="#BFD4FC"/>
<path d="M480.126 102.023H442.299V106.164H480.126V102.023Z" fill="#BFD4FC"/>
<path d="M255.511 141.596H218.709V146.131H255.511V141.596Z" fill="#D4D4D4"/>
<path d="M264.439 133.521H209.782V138.055H264.439V133.521Z" fill="#D4D4D4"/>
<path d="M246.697 71.2847C246.698 73.1646 246.141 75.0025 245.097 76.5659C244.053 78.1293 242.569 79.348 240.833 80.0679C239.096 80.7878 237.185 80.9765 235.341 80.6101C233.497 80.2438 231.803 79.3389 230.474 78.0099C229.144 76.6808 228.239 74.9873 227.872 73.1436C227.505 71.2999 227.693 69.3887 228.412 67.6519C229.131 65.915 230.35 64.4305 231.913 63.386C233.476 62.3415 235.313 61.784 237.193 61.784C239.713 61.784 242.13 62.7849 243.912 64.5665C245.695 66.3481 246.696 68.7647 246.697 71.2847Z" fill="url(#paint15_linear_1_22)"/>
<path d="M254.335 102.265V120.334C248.922 122.782 243.05 124.048 237.11 124.048C231.17 124.048 225.299 122.782 219.886 120.334V102.265C219.886 97.6966 221.701 93.3156 224.931 90.0854C228.161 86.8553 232.542 85.0406 237.11 85.0406C241.679 85.0406 246.06 86.8553 249.29 90.0854C252.52 93.3156 254.335 97.6966 254.335 102.265Z" fill="url(#paint16_linear_1_22)"/>
<path d="M237.11 125.176C231.008 125.198 224.973 123.903 219.417 121.38C210.514 117.338 203.264 110.369 198.874 101.633C194.483 92.8971 193.216 82.921 195.284 73.3649C197.352 63.8087 202.63 55.2489 210.239 49.1098C217.849 42.9707 227.331 39.6226 237.109 39.6226C246.886 39.6226 256.368 42.9707 263.978 49.1098C271.588 55.2489 276.866 63.8087 278.934 73.3649C281.001 82.921 279.735 92.8971 275.344 101.633C270.953 110.369 263.703 117.338 254.8 121.38C249.245 123.903 243.211 125.198 237.11 125.176ZM237.11 41.8266C229.089 41.8252 221.248 44.2026 214.578 48.6582C207.908 53.1137 202.709 59.4472 199.639 66.8576C196.568 74.268 195.765 82.4225 197.329 90.2896C198.894 98.1568 202.756 105.383 208.428 111.055C214.1 116.727 221.326 120.59 229.194 122.154C237.061 123.719 245.215 122.915 252.626 119.845C260.036 116.775 266.37 111.576 270.825 104.906C275.281 98.2357 277.658 90.3942 277.657 82.3729C277.645 71.623 273.369 61.3168 265.768 53.7154C258.166 46.1141 247.86 41.8385 237.11 41.8266Z" fill="url(#paint17_linear_1_22)"/>
<path d="M305.127 73.7488H302.867V128.551H305.127V73.7488Z" fill="#CEDEFD"/>
<path d="M315.511 73.7488H313.251V128.551H315.511V73.7488Z" fill="#CEDEFD"/>
<path d="M336.279 73.7488H334.019V128.551H336.279V73.7488Z" fill="#CEDEFD"/>
<path d="M346.664 73.7488H344.403V128.551H346.664V73.7488Z" fill="#CEDEFD"/>
<path d="M357.048 73.7488H354.787V128.551H357.048V73.7488Z" fill="#CEDEFD"/>
<path d="M367.432 73.7488H365.172V128.551H367.432V73.7488Z" fill="#CEDEFD"/>
<path d="M377.816 73.7488H375.556V128.551H377.816V73.7488Z" fill="#CEDEFD"/>
<path d="M388.201 73.7488H385.94V128.551H388.201V73.7488Z" fill="#CEDEFD"/>
<path d="M398.585 73.7488H396.324V128.551H398.585V73.7488Z" fill="#CEDEFD"/>
<path d="M408.969 73.7488H406.708V128.551H408.969V73.7488Z" fill="#CEDEFD"/>
<path d="M419.353 73.7488H417.093V128.551H419.353V73.7488Z" fill="#CEDEFD"/>
<path d="M325.895 81.6586H323.635V128.551H325.895V81.6586Z" fill="#DF655A"/>
<path d="M377.816 87.4045H375.556V128.551H377.816V87.4045Z" fill="#DF655A"/>
<path d="M388.201 105.954H385.94V128.551H388.201V105.954Z" fill="#DF655A"/>
<path d="M398.585 92.3948H396.324V128.551H398.585V92.3948Z" fill="#DF655A"/>
<path d="M408.969 110.471H406.708V128.551H408.969V110.471Z" fill="#DF655A"/>
<path d="M419.353 92.3948H417.093V128.551H419.353V92.3948Z" fill="#DF655A"/>
<path d="M203.135 10.6085V14.2528H167.641V49.7468H164V10.6085H203.135Z" fill="white"/>
<path d="M524.392 3.81683H495.5V12.3306H524.392V3.81683Z" fill="white"/>
<path d="M492.729 7.05737H475.688V8.33081H492.729V7.05737Z" fill="white"/>
<path d="M492.729 8.88641H475.688V12.334H492.729V8.88641Z" fill="white"/>
<path d="M525.027 0H523.757V23.8571H525.027V0Z" fill="white"/>
<path d="M325.929 74H323.668V128.803H325.929V74Z" fill="#CEDEFD"/>
<path d="M305.16 90.3856H302.9V128.803H305.16V90.3856Z" fill="#DF655A"/>
<path d="M315.545 103.662H313.284V128.803H315.545V103.662Z" fill="#DF655A"/>
<path d="M336.313 115.15H334.053V128.803H336.313V115.15Z" fill="#DF655A"/>
<path d="M346.697 101.401H344.437V128.803H346.697V101.401Z" fill="#DF655A"/>
<path d="M357.081 91.1379H354.821V128.803H357.081V91.1379Z" fill="#DF655A"/>
<path d="M367.466 104.511H365.205V128.803H367.466V104.511Z" fill="#DF655A"/>
<defs>
<linearGradient id="paint0_linear_1_22" x1="33.4349" y1="121.167" x2="534.809" y2="410.637" gradientUnits="userSpaceOnUse">
<stop stop-color="#FF6242"/>
<stop offset="1" stop-color="#FFBE9D"/>
</linearGradient>
<linearGradient id="paint1_linear_1_22" x1="109.351" y1="36.8713" x2="489.059" y2="416.579" gradientUnits="userSpaceOnUse">
<stop stop-color="#03B8FE"/>
<stop offset="1" stop-color="#C337AB"/>
</linearGradient>
<linearGradient id="paint2_linear_1_22" x1="189.647" y1="177.344" x2="72.4875" y2="171.486" gradientUnits="userSpaceOnUse">
<stop stop-color="#81D3E4"/>
<stop offset="1" stop-color="#6076FA"/>
</linearGradient>
<linearGradient id="paint3_linear_1_22" x1="187.056" y1="244.709" x2="132.523" y2="182.962" gradientUnits="userSpaceOnUse">
<stop stop-color="#81D3E4"/>
<stop offset="1" stop-color="#6076FA"/>
</linearGradient>
<linearGradient id="paint4_linear_1_22" x1="180.203" y1="141.417" x2="124.741" y2="138.644" gradientUnits="userSpaceOnUse">
<stop stop-color="#81D3E4"/>
<stop offset="1" stop-color="#6076FA"/>
</linearGradient>
<linearGradient id="paint5_linear_1_22" x1="171.754" y1="199.878" x2="131.982" y2="129.438" gradientUnits="userSpaceOnUse">
<stop stop-color="#81D3E4"/>
<stop offset="1" stop-color="#6076FA"/>
</linearGradient>
<linearGradient id="paint6_linear_1_22" x1="312.897" y1="321.81" x2="132.052" y2="321.81" gradientUnits="userSpaceOnUse">
<stop stop-color="#EEBE63"/>
<stop offset="1" stop-color="#DC3B57"/>
</linearGradient>
<linearGradient id="paint7_linear_1_22" x1="312.897" y1="331.697" x2="132.055" y2="331.697" gradientUnits="userSpaceOnUse">
<stop stop-color="#EEBE63"/>
<stop offset="1" stop-color="#DC3B57"/>
</linearGradient>
<linearGradient id="paint8_linear_1_22" x1="312.9" y1="341.585" x2="132.052" y2="341.585" gradientUnits="userSpaceOnUse">
<stop stop-color="#EEBE63"/>
<stop offset="1" stop-color="#DC3B57"/>
</linearGradient>
<linearGradient id="paint9_linear_1_22" x1="41.8141" y1="358.194" x2="107.512" y2="358.194" gradientUnits="userSpaceOnUse">
<stop stop-color="#81D3E4"/>
<stop offset="1" stop-color="#6076FA"/>
</linearGradient>
<linearGradient id="paint10_linear_1_22" x1="90.0079" y1="394.855" x2="149.421" y2="394.855" gradientUnits="userSpaceOnUse">
<stop stop-color="#81D3E4"/>
<stop offset="1" stop-color="#6076FA"/>
</linearGradient>
<linearGradient id="paint11_linear_1_22" x1="95.0878" y1="403.496" x2="139.682" y2="403.496" gradientUnits="userSpaceOnUse">
<stop stop-color="#81D3E4"/>
<stop offset="1" stop-color="#6076FA"/>
</linearGradient>
<linearGradient id="paint12_linear_1_22" x1="78.9818" y1="367.609" x2="130.917" y2="367.609" gradientUnits="userSpaceOnUse">
<stop stop-color="#81D3E4"/>
<stop offset="1" stop-color="#6076FA"/>
</linearGradient>
<linearGradient id="paint13_linear_1_22" x1="67.0653" y1="442.1" x2="114.99" y2="442.1" gradientUnits="userSpaceOnUse">
<stop stop-color="#E59148"/>
<stop offset="1" stop-color="#F1CC52"/>
</linearGradient>
<linearGradient id="paint14_linear_1_22" x1="67.0653" y1="442.1" x2="114.99" y2="442.1" gradientUnits="userSpaceOnUse">
<stop stop-color="#B37239"/>
<stop offset="1" stop-color="#F1CC52"/>
</linearGradient>
<linearGradient id="paint15_linear_1_22" x1="237.193" y1="46.2681" x2="237.193" y2="147.981" gradientUnits="userSpaceOnUse">
<stop stop-color="#81D3E4"/>
<stop offset="1" stop-color="#6076FA"/>
</linearGradient>
<linearGradient id="paint16_linear_1_22" x1="237.11" y1="46.2681" x2="237.11" y2="147.981" gradientUnits="userSpaceOnUse">
<stop stop-color="#81D3E4"/>
<stop offset="1" stop-color="#6076FA"/>
</linearGradient>
<linearGradient id="paint17_linear_1_22" x1="237.11" y1="52.8458" x2="237.11" y2="141.914" gradientUnits="userSpaceOnUse">
<stop stop-color="#D3D8DE"/>
<stop offset="1" stop-color="white"/>
</linearGradient>
</defs>
</svg>
