<svg xmlns="http://www.w3.org/2000/svg" width="67" height="144" viewBox="0 0 67 144">
  <g id="Group_165" data-name="Group 165" transform="translate(0 -2264)">
    <circle id="Ellipse_10" data-name="Ellipse 10" cx="7" cy="7" r="7" transform="translate(0 2264)" fill="#fff"/>
    <ellipse id="Ellipse_10-2" data-name="Ellipse 10" cx="6.5" cy="7" rx="6.5" ry="7" transform="translate(26 2264)" fill="#fff"/>
    <circle id="Ellipse_10-3" data-name="Ellipse 10" cx="7" cy="7" r="7" transform="translate(53 2264)" fill="#fff"/>
    <circle id="Ellipse_10-4" data-name="Ellipse 10" cx="7" cy="7" r="7" transform="translate(0 2308)" fill="#fff"/>
    <ellipse id="Ellipse_10-5" data-name="Ellipse 10" cx="6.5" cy="7" rx="6.5" ry="7" transform="translate(26 2308)" fill="#fff"/>
    <circle id="Ellipse_10-6" data-name="Ellipse 10" cx="7" cy="7" r="7" transform="translate(53 2308)" fill="#fff"/>
    <circle id="Ellipse_10-7" data-name="Ellipse 10" cx="7" cy="7" r="7" transform="translate(0 2350)" fill="#fff"/>
    <ellipse id="Ellipse_10-8" data-name="Ellipse 10" cx="6.5" cy="7" rx="6.5" ry="7" transform="translate(26 2350)" fill="#fff"/>
    <circle id="Ellipse_10-9" data-name="Ellipse 10" cx="7" cy="7" r="7" transform="translate(53 2350)" fill="#fff"/>
    <circle id="Ellipse_10-10" data-name="Ellipse 10" cx="7" cy="7" r="7" transform="translate(0 2394)" fill="#fff"/>
    <ellipse id="Ellipse_10-11" data-name="Ellipse 10" cx="6.5" cy="7" rx="6.5" ry="7" transform="translate(26 2394)" fill="#fff"/>
    <circle id="Ellipse_10-12" data-name="Ellipse 10" cx="7" cy="7" r="7" transform="translate(53 2394)" fill="#fff"/>
  </g>
</svg>
