<svg id="Group_13" data-name="Group 13" xmlns="http://www.w3.org/2000/svg" width="67" height="144" viewBox="0 0 67 144">
  <circle id="Ellipse_10" data-name="Ellipse 10" cx="7" cy="7" r="7" fill="#c9c97e"/>
  <ellipse id="Ellipse_10-2" data-name="Ellipse 10" cx="6.5" cy="7" rx="6.5" ry="7" transform="translate(26)" fill="#c9c97e"/>
  <circle id="Ellipse_10-3" data-name="Ellipse 10" cx="7" cy="7" r="7" transform="translate(53)" fill="#c9c97e"/>
  <circle id="Ellipse_10-4" data-name="Ellipse 10" cx="7" cy="7" r="7" transform="translate(0 44)" fill="#c9c97e"/>
  <ellipse id="Ellipse_10-5" data-name="Ellipse 10" cx="6.5" cy="7" rx="6.5" ry="7" transform="translate(26 44)" fill="#c9c97e"/>
  <circle id="Ellipse_10-6" data-name="Ellipse 10" cx="7" cy="7" r="7" transform="translate(53 44)" fill="#c9c97e"/>
  <circle id="Ellipse_10-7" data-name="Ellipse 10" cx="7" cy="7" r="7" transform="translate(0 86)" fill="#c9c97e"/>
  <ellipse id="Ellipse_10-8" data-name="Ellipse 10" cx="6.5" cy="7" rx="6.5" ry="7" transform="translate(26 86)" fill="#c9c97e"/>
  <circle id="Ellipse_10-9" data-name="Ellipse 10" cx="7" cy="7" r="7" transform="translate(53 86)" fill="#c9c97e"/>
  <circle id="Ellipse_10-10" data-name="Ellipse 10" cx="7" cy="7" r="7" transform="translate(0 130)" fill="#c9c97e"/>
  <ellipse id="Ellipse_10-11" data-name="Ellipse 10" cx="6.5" cy="7" rx="6.5" ry="7" transform="translate(26 130)" fill="#c9c97e"/>
  <circle id="Ellipse_10-12" data-name="Ellipse 10" cx="7" cy="7" r="7" transform="translate(53 130)" fill="#c9c97e"/>
</svg>
