<svg width="46" height="46" viewBox="0 0 46 46" fill="none" xmlns="http://www.w3.org/2000/svg">
<path d="M0.00605873 42.9039C1.44376 41.4662 2.95241 40.0293 4.46184 38.5198C3.67633 37.3393 3.11594 36.0238 2.80895 34.6394C2.37656 32.7953 2.42004 30.8715 2.93529 29.0487C3.45054 27.226 4.42066 25.5641 5.75452 24.2192C7.62571 22.2787 9.49144 20.4106 11.432 18.5417C11.7915 18.1823 12.0066 18.1823 12.3676 18.5417L14.6676 20.8417L17.7582 17.7512C18.764 16.7454 18.6938 16.7454 19.6988 17.7512L20.9205 18.9729C21.3517 19.404 21.3517 19.62 20.9205 19.9786L17.4705 23.4287L22.5726 28.5308C22.9022 28.2124 23.2145 27.8767 23.5082 27.525L26.0952 24.9381C26.4546 24.5787 26.598 24.5787 26.9575 24.9381L28.7507 26.7313C29.1101 27.0907 29.1101 27.3059 28.7507 27.6669L25.5166 30.901C25.3732 31.0444 25.229 31.1169 25.0855 31.2604C25.229 31.4038 25.3015 31.5481 25.4449 31.6198L27.4572 33.6321C27.7449 33.9198 27.7449 34.2067 27.4572 34.4227C25.3732 36.5067 23.3609 38.6625 21.2051 40.6031C19.3964 42.2102 17.1136 43.1847 14.7019 43.3793C12.2902 43.5738 9.88069 42.9778 7.83778 41.6814C7.76605 41.6096 7.62181 41.5379 7.55008 41.4654C6.04221 42.9039 4.60607 44.4133 3.09587 45.8502H2.66471L0.0777878 43.2633C0.0126074 43.1556 -0.0127718 43.0284 0.00605873 42.9039ZM11.7915 23.7156C11.7197 23.7873 11.5755 23.859 11.5038 24.0033L8.55741 26.9496C7.85903 27.6292 7.30133 28.4396 6.91616 29.3347C6.53099 30.2298 6.32589 31.1919 6.31257 32.1663C6.29924 33.1406 6.47796 34.108 6.83852 35.0133C7.19908 35.9186 7.73441 36.7439 8.41395 37.4423C9.09349 38.1407 9.90393 38.6984 10.799 39.0836C11.6941 39.4688 12.6563 39.6738 13.6306 39.6872C14.6049 39.7005 15.5724 39.5218 16.4776 39.1612C17.3829 38.8007 18.2083 38.2653 18.9067 37.5858L21.9972 34.4952C22.069 34.4235 22.2132 34.2792 22.2132 34.2075C18.7624 30.6865 15.2415 27.1656 11.7915 23.7156Z" fill="#DF655A"/>
<path d="M46 3.01808C44.5623 4.45578 43.0497 5.8927 41.5442 7.40212C42.2615 8.48132 42.7965 9.6711 43.1277 10.9239C43.6349 12.8206 43.6293 14.818 43.1117 16.712C42.594 18.6059 41.5828 20.3284 40.1814 21.7035C38.3881 23.5747 36.517 25.4404 34.6458 27.2391C34.2146 27.6703 33.9986 27.6703 33.5675 27.2391L18.619 12.2891C18.1878 11.8579 18.1878 11.6419 18.619 11.2833C20.5596 9.34271 22.4994 7.3304 24.5117 5.46232C26.3462 3.7488 28.7009 2.6978 31.2014 2.47642C33.702 2.25505 36.2047 2.87602 38.3117 4.24059C38.3835 4.31232 38.4552 4.31232 38.5277 4.38405C40.0348 2.94635 41.4725 1.4377 42.9811 0H43.4123L45.9992 2.58692L46 3.01808ZM34.1421 22.2064C34.2138 22.1346 34.3581 22.0629 34.4298 21.9187L37.3761 18.9723C38.1552 18.2275 38.7591 17.3189 39.1443 16.3123C39.5296 15.3056 39.6864 14.226 39.6036 13.1514C39.5471 11.7324 39.0643 10.3634 38.2182 9.22298C37.372 8.08253 36.2018 7.22356 34.8602 6.75812C33.5515 6.2136 32.1082 6.08009 30.7219 6.37532C29.3355 6.67055 28.0719 7.38054 27.0986 8.41101C26.0203 9.41677 25.0863 10.4233 24.0805 11.4291L23.7928 11.7168C27.1711 15.2354 30.6204 18.7571 34.1421 22.2064Z" fill="#DF655A"/>
</svg>
