<svg width="51" height="51" viewBox="0 0 51 51" fill="none" xmlns="http://www.w3.org/2000/svg">
<path d="M41.5632 26.5C40.5092 28.157 39.4542 29.814 38.4752 31.471C38.4002 31.546 38.3242 31.697 38.2492 31.771C37.6492 32.825 36.8932 33.127 36.1402 32.6C35.3872 32.073 35.3112 31.32 35.9892 30.34C37.7972 27.478 39.5292 24.616 41.3372 21.678C41.4369 21.4842 41.5834 21.3183 41.7634 21.1953C41.9434 21.0723 42.1512 20.9962 42.368 20.9738C42.5848 20.9513 42.8038 20.9833 43.0052 21.0668C43.2065 21.1503 43.3839 21.2827 43.5212 21.452C45.9312 24.088 48.3422 26.724 50.6762 29.436C50.8979 29.7067 51.0046 30.0536 50.9733 30.4021C50.942 30.7506 50.7752 31.0729 50.5088 31.2998C50.2424 31.5266 49.8976 31.6399 49.5486 31.6153C49.1995 31.5906 48.8741 31.4301 48.6422 31.168C47.5122 29.888 46.3072 28.607 45.1772 27.327C45.0262 27.101 44.8772 26.95 44.6502 26.649C44.4474 26.9604 44.3669 27.3358 44.4242 27.703C44.438 32.4559 42.9222 37.0872 40.1008 40.9122C37.2795 44.7371 33.3023 47.5528 28.7572 48.943C27.3262 49.395 26.4972 49.169 26.1962 48.343C25.8952 47.517 26.4222 46.837 27.9282 46.46C31.4828 45.3673 34.6528 43.285 37.0674 40.4567C39.482 37.6284 41.0414 34.1711 41.5632 30.489C41.7889 29.1689 41.7889 27.8201 41.5632 26.5Z" fill="#DF655A"/>
<path d="M12.6403 44.9513C11.8113 42.9933 10.9083 41.0343 10.0793 39.0763C9.62727 38.0223 9.77927 37.2683 10.6063 36.9673C11.4333 36.6663 12.0373 36.9673 12.4893 38.0213C13.8453 41.0343 15.2013 43.9713 16.5563 46.9843C17.2343 48.4153 16.7823 49.1683 15.2003 49.3943L5.93727 50.7433C5.71127 50.7433 5.56027 50.8183 5.33727 50.8183C4.20727 50.8933 3.68027 50.5183 3.60527 49.6883C3.53027 48.8583 4.05727 48.3323 5.11127 48.1823C6.91927 47.8823 8.72627 47.6553 10.7603 47.3533C9.42354 46.423 8.14111 45.417 6.91927 44.3403C3.86594 41.4604 1.69816 37.7687 0.670722 33.6992C-0.356712 29.6297 -0.201098 25.3514 1.11927 21.3673C1.49627 20.3133 2.17327 19.8613 2.92727 20.1623C3.68127 20.4633 3.98127 21.1413 3.60527 22.1963C2.2272 26.3366 2.2879 30.821 3.77753 34.9226C5.26716 39.0241 8.0984 42.5023 11.8123 44.7933C12.0232 44.9243 12.2514 45.0253 12.4903 45.0933C12.5653 45.1683 12.6413 45.2443 12.6413 45.0933C12.7153 45.1023 12.6403 45.0263 12.6403 44.9513Z" fill="#DF655A"/>
<path d="M11.2207 10.2721C13.1037 10.4981 14.8357 10.6491 16.5687 10.8721C17.0957 10.9471 17.5477 10.9471 18.0747 11.0231C18.2551 11.0157 18.4349 11.0497 18.6001 11.1225C18.7654 11.1953 18.9118 11.305 19.0281 11.4431C19.1444 11.5813 19.2276 11.7442 19.2712 11.9194C19.3148 12.0947 19.3177 12.2776 19.2797 12.4541C19.2782 12.6388 19.2356 12.8209 19.1549 12.9871C19.0743 13.1533 18.9575 13.2994 18.8133 13.4148C18.6691 13.5302 18.5009 13.612 18.3211 13.6543C18.1412 13.6966 17.9542 13.6982 17.7737 13.6591C16.3427 13.5841 14.8357 13.3591 13.4047 13.2821C11.6727 13.1311 9.93969 12.9051 8.28269 12.7551C7.90569 12.6801 7.52969 12.6801 7.15269 12.6041C6.95191 12.5787 6.75968 12.5075 6.59089 12.3958C6.42209 12.2842 6.28128 12.1351 6.17936 11.9603C6.07743 11.7855 6.01714 11.5895 6.00315 11.3876C5.98916 11.1857 6.02185 10.9833 6.09869 10.7961C7.37869 7.48412 8.73436 4.17112 10.1657 0.857116C10.2259 0.690921 10.3194 0.538753 10.4404 0.409916C10.5615 0.281078 10.7075 0.178277 10.8696 0.107798C11.0317 0.0373186 11.2065 0.000641364 11.3833 8.33657e-06C11.56 -0.000624691 11.7351 0.0347998 11.8977 0.104116C12.062 0.165699 12.2114 0.261172 12.3364 0.384326C12.4613 0.507481 12.559 0.655558 12.6229 0.818927C12.6869 0.982296 12.7157 1.1573 12.7076 1.33255C12.6994 1.5078 12.6545 1.67938 12.5757 1.83612C11.9757 3.41812 11.2957 4.99912 10.6927 6.58112C10.5636 6.80969 10.5107 7.07345 10.5417 7.33412C10.9187 7.48512 11.1417 7.25912 11.3707 7.10812C15.7223 5.00113 20.6418 4.36891 25.3848 5.30715C30.1277 6.24539 34.436 8.70301 37.6577 12.3081C38.4107 13.1371 38.4867 13.8901 37.8837 14.4921C37.2807 15.0941 36.5277 14.9441 35.6997 14.1151C33.7989 11.9389 31.4272 10.2243 28.7647 9.1017C26.1022 7.97907 23.2189 7.47786 20.3337 7.63612C17.2921 7.71456 14.3168 8.54236 11.6717 10.0461C11.5217 9.97112 11.4537 10.0471 11.2207 10.2721Z" fill="#DF655A"/>
</svg>
