<svg width="48" height="42" viewBox="0 0 48 42" fill="none" xmlns="http://www.w3.org/2000/svg">
<g clip-path="url(#clip0_109_408)">
<path d="M14.032 14.087C15.408 15.848 16.508 17.279 17.774 18.874C21.956 14.582 25.863 10.62 29.88 6.548C31.531 8.148 32.906 9.409 34.447 10.895C36.373 8.8 38.188 6.823 40.389 4.4H34.667V0H47.433V12.876H43.361C43.306 11.445 43.251 10.015 43.141 7.924C40.115 11.171 37.473 14.087 34.282 17.609C33.071 15.848 31.971 14.197 30.595 12.161C26.083 16.948 22.286 21.02 18.379 25.2C16.453 23.384 15.022 22.063 13.427 20.578L2.916 30.1C1.926 29 1.046 28.008 0 26.853C4.567 22.671 9.024 18.654 14.032 14.087Z" fill="#DF655A"/>
<path d="M41.27 18.6541H45.342V41.5451H41.27V18.6541Z" fill="#DF655A"/>
<path d="M29.934 41.6H25.917V22.011H29.934V41.6Z" fill="#DF655A"/>
<path d="M33.566 21.9561H37.638V41.5451H33.566V21.9561Z" fill="#DF655A"/>
<path d="M14.582 41.5449H10.51V27.5129H14.582V41.5449Z" fill="#DF655A"/>
<path d="M18.104 28.5591H22.176V41.4901H18.104V28.5591Z" fill="#DF655A"/>
<path d="M2.75098 32.906H6.76798V41.435H2.75098V32.906Z" fill="#DF655A"/>
</g>
<defs>
<clipPath id="clip0_109_408">
<rect width="47.433" height="41.6" fill="white"/>
</clipPath>
</defs>
</svg>
