<svg width="62" height="44" viewBox="0 0 62 44" fill="none" xmlns="http://www.w3.org/2000/svg">
<path d="M23.477 23.7274C23.229 24.7204 22.977 25.6274 22.732 26.5414C22.649 26.7074 22.649 26.7894 22.401 26.7894H21.573C21.5302 26.7857 21.49 26.7671 21.4597 26.7367C21.4293 26.7063 21.4106 26.6662 21.407 26.6234C20.907 25.1334 20.414 23.5604 20 22.0704V21.9894H21.076C21.1188 21.993 21.159 22.0116 21.1893 22.042C21.2197 22.0724 21.2384 22.1125 21.242 22.1554C21.49 23.0664 21.742 23.8934 21.987 24.8044C21.987 24.8874 22.07 24.9704 22.07 25.0524C22.153 24.8864 22.153 24.8864 22.153 24.8044C22.401 23.9764 22.653 23.0664 22.815 22.2384C22.811 22.2048 22.8146 22.1708 22.8257 22.1389C22.8367 22.107 22.8548 22.078 22.8787 22.0541C22.9026 22.0302 22.9316 22.0121 22.9635 22.001C22.9955 21.99 23.0295 21.9863 23.063 21.9904H23.808C24.056 21.9904 24.139 22.0734 24.139 22.3214C24.387 23.2324 24.553 24.1424 24.801 24.9704V25.1364C24.8586 25.0358 24.8874 24.9212 24.884 24.8054C25.132 23.8944 25.384 23.0674 25.629 22.1564C25.629 21.9904 25.712 21.9904 25.877 21.9904H26.953C26.9583 22.0353 26.9537 22.0808 26.9393 22.1237C26.925 22.1666 26.9013 22.2057 26.87 22.2384C26.37 23.6454 25.959 25.1384 25.463 26.5384C25.38 26.7044 25.38 26.7864 25.215 26.7864H24.387C24.3535 26.7902 24.3196 26.7864 24.2877 26.7753C24.2559 26.7642 24.227 26.746 24.2032 26.7222C24.1793 26.6984 24.1612 26.6695 24.1501 26.6376C24.1389 26.6058 24.1352 26.5719 24.139 26.5384C23.891 25.6274 23.639 24.8004 23.477 23.8894C23.559 23.8894 23.477 23.8104 23.477 23.7274Z" fill="#DF655A"/>
<path d="M31.041 0.083H60.841C61.834 0.083 62 0.248 62 1.242V42.134C62 43.127 61.834 43.293 60.841 43.293H1.159C0.166 43.292 0 43.127 0 42.134V1.159C0 0.166 0.166 0 1.159 0C11.175 0.083 21.108 0.083 31.041 0.083ZM60.592 10.016H1.49V41.885H60.59L60.592 10.016ZM60.592 1.573H1.49V8.526H60.59L60.592 1.573Z" fill="#DF655A"/>
<path d="M32.448 11.8379C32.862 11.9209 33.359 11.9209 33.772 12.0039C35.9533 12.3443 38.0139 13.228 39.7642 14.5736C41.5145 15.9191 42.8982 17.6834 43.788 19.7039C43.9415 20.0002 44.0797 20.3043 44.202 20.6149H42.878C42.464 20.6149 42.299 20.5319 42.133 20.2009C41.967 19.7009 41.719 19.5389 41.14 19.5389C40.3405 19.5802 39.5394 19.5802 38.74 19.5389H38.492C38.575 19.8699 38.658 20.2009 38.74 20.6149H37.332C37.084 20.6149 37.001 20.5319 37.001 20.3669C36.9768 20.1126 36.9211 19.8623 36.835 19.6219H32.535V20.6149H30.876V19.6179H26.737C26.571 19.6179 26.489 19.7009 26.489 19.7839C26.406 20.0319 26.406 20.2839 26.323 20.5289C26.3194 20.5717 26.3007 20.6118 26.2703 20.6422C26.2399 20.6726 26.1998 20.6912 26.157 20.6949H24.585C24.668 20.3639 24.751 20.0329 24.833 19.6189H21.687C21.521 19.6189 21.439 19.6189 21.356 19.7849C21.2303 20.0261 21.1198 20.2749 21.025 20.5299C21.0214 20.5727 21.0027 20.6128 20.9723 20.6432C20.9419 20.6736 20.9018 20.6922 20.859 20.6959H19.204C19.204 20.6129 19.287 20.5299 19.287 20.4479C20.0927 18.3079 21.4388 16.413 23.1942 14.9476C24.9496 13.4823 27.0545 12.4964 29.304 12.0859C29.7952 11.9897 30.2936 11.9341 30.794 11.9199H30.96C31.4535 11.851 31.9519 11.8232 32.45 11.8369L32.448 11.8379ZM30.876 13.6579C30.1855 13.8941 29.5613 14.2914 29.055 14.8169C28.2512 15.7218 27.6086 16.7578 27.155 17.8799H30.88L30.876 13.6579ZM32.532 13.6579V17.8799H36.257C36.1357 17.5958 35.9975 17.3193 35.843 17.0519C35.3521 16.0524 34.6781 15.1539 33.856 14.4029C33.4636 14.0761 33.0149 13.8237 32.532 13.6579ZM27.069 14.4859C25.3341 15.2521 23.8031 16.4146 22.599 17.8799H25.082C25.248 17.8799 25.33 17.7969 25.413 17.6319C25.7987 16.5294 26.3578 15.4954 27.069 14.5689V14.4859ZM36.257 14.4859C36.997 15.4975 37.5827 16.6133 37.995 17.7969C37.995 17.8799 38.161 17.8799 38.243 17.8799H40.726C39.5624 16.373 38.02 15.2019 36.256 14.4859H36.257Z" fill="#DF655A"/>
<path d="M31.7041 23.8928C31.4561 24.8858 31.2041 25.7928 30.9591 26.7068C30.9591 26.8728 30.8761 26.9548 30.7111 26.8728H29.8001C29.7572 26.8691 29.7171 26.8505 29.6867 26.8201C29.6563 26.7897 29.6377 26.7496 29.6341 26.7068C29.1341 25.2168 28.6411 23.6438 28.2271 22.1538V22.0708H29.3861C29.4691 22.0708 29.4691 22.1538 29.4691 22.2368C29.7171 23.0648 29.9691 23.9748 30.2141 24.8028C30.2141 24.8858 30.2971 24.9688 30.2971 25.0508C30.5451 24.1398 30.7971 23.1508 31.0421 22.2368C31.1251 22.0708 31.2081 21.9888 31.3731 21.9888H32.2011C32.3671 21.9888 32.3671 21.9888 32.4491 22.1548C32.6971 23.0658 32.9491 23.9758 33.1111 24.8868C33.1111 24.9088 33.1198 24.9299 33.1354 24.9455C33.1509 24.961 33.172 24.9698 33.1941 24.9698C33.288 24.7606 33.3442 24.5365 33.3601 24.3078C33.6081 23.5628 33.7741 22.8178 34.0221 22.1558C34.0221 21.9898 34.1051 21.9898 34.2701 21.9898H35.3461V22.1558C34.8461 23.6458 34.4351 25.0558 33.9391 26.5428C33.8561 26.7088 33.8561 26.7088 33.6911 26.7088H32.8631C32.6971 26.7088 32.6151 26.7088 32.6151 26.4608C32.3671 25.5498 32.1151 24.7228 31.8701 23.8118C31.7041 24.0618 31.7041 23.9798 31.7041 23.8928Z" fill="#DF655A"/>
<path d="M39.5679 23.8888L38.8229 26.6208C38.8229 26.7868 38.7399 26.8688 38.5749 26.7868H37.6639C37.6211 26.7831 37.581 26.7645 37.5506 26.7341C37.5202 26.7037 37.5016 26.6636 37.4979 26.6208C36.9979 25.1308 36.5049 23.5578 36.0909 22.0678V21.9888H37.2499C37.3329 21.9888 37.3329 22.0718 37.3329 22.1548C37.5809 23.0658 37.8329 23.8928 38.0779 24.8038C38.0779 24.8868 38.1609 24.9698 38.1609 25.0518C38.4089 24.0588 38.6609 23.1518 38.9059 22.2378C38.9889 22.0718 39.0719 21.9898 39.2369 21.9898H39.9819C40.1479 21.9898 40.2299 22.0728 40.3129 22.2378C40.5609 23.1488 40.7269 24.0588 40.9749 24.8868C40.9749 24.9698 40.9749 24.9698 41.0579 25.0528C41.3059 24.2248 41.4719 23.5628 41.7199 22.8178C41.8046 22.6055 41.8604 22.3829 41.8859 22.1558C41.8896 22.113 41.9082 22.0728 41.9386 22.0424C41.969 22.012 42.0091 21.9934 42.0519 21.9898H43.2109C43.2163 22.0347 43.2116 22.0802 43.1973 22.1231C43.1829 22.166 43.1592 22.2051 43.1279 22.2378C42.6279 23.6448 42.2169 25.1378 41.7209 26.5378C41.6379 26.7038 41.5549 26.7858 41.3899 26.7858H40.6449C40.4789 26.7858 40.3969 26.7858 40.3139 26.5378C40.0659 25.7098 39.8999 24.8818 39.6519 23.9718C39.6499 24.0578 39.6499 23.9758 39.5679 23.8888Z" fill="#DF655A"/>
<path d="M30.875 37.4982C30.461 37.4152 29.964 37.4152 29.551 37.3322C27.3696 36.9918 25.309 36.1081 23.5587 34.7625C21.8084 33.4169 20.4247 31.6527 19.535 29.6322C19.3814 29.3359 19.2432 29.0318 19.121 28.7212H20.445C20.859 28.7212 21.024 28.8042 21.19 29.1352C21.356 29.6352 21.604 29.7972 22.183 29.7972C22.9824 29.7559 23.7835 29.7559 24.583 29.7972H24.831C24.748 29.4662 24.665 29.1352 24.583 28.7212H25.991C26.239 28.7212 26.322 28.8042 26.322 28.9692C26.3461 29.2235 26.4019 29.4738 26.488 29.7142H30.788V28.7212H32.444V29.7142H36.583C36.749 29.7142 36.831 29.6312 36.831 29.5482C36.914 29.3002 36.914 29.0482 36.997 28.8032C37.0006 28.7604 37.0193 28.7203 37.0496 28.6899C37.08 28.6595 37.1202 28.6409 37.163 28.6372H38.736C38.653 28.9682 38.57 29.2992 38.488 29.7132H41.634C41.8 29.7132 41.882 29.7132 41.965 29.5472C42.0906 29.306 42.2012 29.0572 42.296 28.8022C42.2996 28.7594 42.3183 28.7193 42.3486 28.6889C42.379 28.6585 42.4192 28.6399 42.462 28.6362H44.121C44.121 28.7192 44.038 28.8022 44.038 28.8842C43.2328 31.0249 41.8869 32.9207 40.1315 34.3868C38.3761 35.8529 36.2709 36.8394 34.021 37.2502C33.5297 37.3464 33.0314 37.4019 32.531 37.4162H32.365C31.8717 37.4875 31.3731 37.5153 30.875 37.4992V37.4982ZM32.531 35.6772C33.2214 35.441 33.8456 35.0437 34.352 34.5182C35.1557 33.6133 35.7984 32.5773 36.252 31.4552H32.531V35.6772ZM30.793 35.6772V31.4552H27.068C27.1892 31.7393 27.3275 32.0158 27.482 32.2832C27.9729 33.2827 28.6469 34.1812 29.469 34.9322C29.8614 35.259 30.31 35.5114 30.793 35.6772ZM36.256 34.8492C37.9909 34.083 39.5219 32.9205 40.726 31.4552H38.242C38.076 31.4552 37.994 31.5382 37.911 31.7032C37.5252 32.8057 36.9662 33.8397 36.255 34.7662C36.339 34.7672 36.339 34.7672 36.256 34.8492ZM27.068 34.8492C26.3279 33.8386 25.7419 32.7238 25.329 31.5412C25.329 31.4582 25.163 31.4582 25.081 31.4582H22.598C23.7788 32.9475 25.3163 34.1148 27.068 34.8522V34.8492Z" fill="#DF655A"/>
</svg>
