<svg width="54" height="42" viewBox="0 0 54 42" fill="none" xmlns="http://www.w3.org/2000/svg">
<path d="M0 40.5551V4.9511C1.241 3.9261 2.805 4.7891 4.1 4.1971C4.639 -0.227897 4.639 -0.281897 9.171 0.203103C14.6335 0.721903 20.0132 1.89945 25.193 3.7101C25.7651 3.95042 26.3794 4.07421 27 4.07421C27.6206 4.07421 28.2349 3.95042 28.807 3.7101C34.1395 1.77348 39.7118 0.575376 45.369 0.149103C49.415 -0.228897 49.415 -0.174897 49.739 3.8711C49.739 4.0331 49.955 4.1411 50.063 4.2491C51.358 4.5191 52.763 3.9791 54.001 4.8961V40.4971C53.1378 40.9987 52.1286 41.189 51.142 41.0361H2.859C1.834 41.0971 0.809 41.2561 0 40.5551ZM47.311 2.3611C41.1054 2.62604 34.9758 3.83004 29.131 5.9321C27.7243 6.47178 26.1677 6.47178 24.761 5.9321C18.9242 3.81069 12.7881 2.62736 6.581 2.4261V34.6861C11.9177 34.8597 17.2032 35.7858 22.281 37.4371C25.2653 38.597 28.5757 38.597 31.56 37.4371C36.577 35.6031 41.972 35.1171 47.312 34.5781L47.311 2.3611ZM18.018 38.7751C14.6291 37.5399 11.0519 36.9011 7.445 36.8871C4.694 36.8871 4.208 35.8081 4.262 33.3811C4.37 24.5881 4.316 15.7951 4.316 6.8401C1.942 5.9771 2.158 7.3791 2.158 8.6741V37.2211C2.158 37.7601 1.996 38.3001 2.482 38.6781M51.789 38.8941V8.0261C51.789 6.2461 50.872 6.5161 49.631 6.8931C49.631 16.0641 49.577 25.1271 49.685 34.2441C49.685 36.1861 49.146 36.9441 47.096 36.9441C43.2684 36.9597 39.4723 37.6363 35.875 38.9441C41 38.8901 46.175 38.8901 51.789 38.8901V38.8941Z" fill="#DF655A"/>
</svg>
