<svg width="56" height="40" viewBox="0 0 56 40" fill="none" xmlns="http://www.w3.org/2000/svg">
<g clip-path="url(#clip0_108_187)">
<path d="M50.123 33.339C48.604 38.579 46.857 39.87 41.541 39.946H3.569C2.91137 40.038 2.24262 40.0122 1.594 39.87C0.990579 39.4451 0.453416 38.9333 0 38.351C0.532 37.819 0.987 36.984 1.595 36.832C2.98275 36.6897 4.38 36.6643 5.772 36.756C5.544 35.541 5.392 34.556 5.24 33.566C0 32.5 0 32.5 0 26.96V3.342C0 0.456 0.456 0 3.266 0H32.58C34.934 0 35.846 0.911 35.846 3.266C35.77 10.7087 35.77 18.151 35.846 25.593C35.846 27.947 34.859 28.859 32.58 28.783C28.023 28.707 23.467 28.783 18.91 28.783H16.556C16.556 29.011 16.48 29.315 16.48 29.542C17.1069 29.679 17.7414 29.7791 18.38 29.842C23.772 29.842 29.164 29.766 34.48 29.918C36.227 29.918 36.758 29.31 36.758 27.64C36.682 19.59 36.682 11.616 36.758 3.566C36.758 0.528 37.214 0.149 40.175 0.149C47.845 0.073 49.668 1.592 52.933 8.579C55.133 13.287 55.059 17.996 55.059 22.856V29.843C55.059 32.881 54.759 33.185 51.642 33.336C51.142 33.2217 50.6225 33.2228 50.123 33.339ZM17.847 20.277H30.225C31.592 20.277 32.351 19.977 32.351 18.377C32.275 13.977 32.275 9.644 32.351 5.239C32.351 3.644 31.668 3.264 30.225 3.264H5.62C4.101 3.264 3.342 3.644 3.342 5.39C3.418 9.719 3.418 13.972 3.342 18.3C3.342 19.743 3.874 20.35 5.392 20.35C9.569 20.277 13.746 20.277 17.847 20.277ZM41.465 3.493C41.165 3.493 40.933 3.569 40.63 3.569V27.491C44.73 26.959 44.655 27.035 48.376 29.238C49.211 29.77 50.426 29.618 51.793 29.846V19.214C51.793 14.354 52.021 15.493 48.072 14.354C41.161 12.454 41.921 14.126 41.845 6.304C41.845 5.392 41.541 4.4 41.465 3.493ZM38.275 36.528C37.288 35.085 36.604 33.338 35.845 33.262C29.997 33.034 24.145 33.11 18.226 33.11C17.926 34.401 17.694 35.388 17.467 36.452C24.3 36.529 30.833 36.529 38.275 36.529V36.528ZM14.885 33.491C14.8811 33.0768 14.7954 32.6674 14.6327 32.2864C14.4701 31.9054 14.2338 31.5603 13.9373 31.2709C13.6409 30.9815 13.2902 30.7536 12.9054 30.6002C12.5206 30.4468 12.1092 30.3709 11.695 30.377C11.2768 30.3402 10.8556 30.3954 10.4611 30.5389C10.0666 30.6824 9.70825 30.9105 9.4114 31.2074C9.11455 31.5043 8.88636 31.8626 8.74289 32.2571C8.59943 32.6516 8.54417 33.0728 8.581 33.491C8.55144 33.9077 8.61193 34.326 8.75836 34.7172C8.90479 35.1085 9.13373 35.4637 9.42962 35.7587C9.72552 36.0536 10.0814 36.2814 10.4732 36.4266C10.8649 36.5718 11.2834 36.6309 11.7 36.6C12.5313 36.599 13.3294 36.2734 13.9243 35.6927C14.5192 35.112 14.8639 34.3221 14.885 33.491ZM43.212 36.6C43.6448 36.626 44.0783 36.5625 44.4854 36.4134C44.8925 36.2643 45.2644 36.0328 45.578 35.7334C45.8916 35.434 46.14 35.0731 46.3078 34.6734C46.4755 34.2736 46.559 33.8435 46.553 33.41C46.325 31.587 45.338 30.296 43.363 30.372C42.95 30.3432 42.5358 30.4046 42.1489 30.5519C41.7621 30.6993 41.4119 30.9292 41.1229 31.2255C40.8338 31.5218 40.6127 31.8775 40.4749 32.2678C40.3371 32.6582 40.286 33.0739 40.325 33.486C40.3018 33.882 40.3588 34.2786 40.4928 34.6519C40.6267 35.0253 40.8348 35.3677 41.1045 35.6586C41.3742 35.9495 41.6999 36.1828 42.0621 36.3446C42.4242 36.5064 42.8154 36.5933 43.212 36.6ZM50.427 11.387C48.756 5.772 48 4.708 45.414 4.025C45.034 11.543 44.579 10.176 50.426 11.391L50.427 11.387Z" fill="#DF655A"/>
</g>
<defs>
<clipPath id="clip0_108_187">
<rect width="55.059" height="40" fill="white"/>
</clipPath>
</defs>
</svg>
