<svg height="512" viewBox="0 0 512 512" width="512" xmlns="http://www.w3.org/2000/svg"><g id="filled_outline" data-name="filled outline"><rect fill="#ff2b63" height="113.137" rx="16" transform="matrix(.707 -.707 .707 .707 -171.744 414.627)" width="113.137" x="358.059" y="358.059"/><path d="m483.313 403.314-51.844-51.845a129.18 129.18 0 0 1 -39.343 120.657l11.187 11.188a16 16 0 0 0 22.628 0l57.372-57.373a16 16 0 0 0 0-22.627z" fill="#e5235f"/><rect fill="#ffcd01" height="112" rx="16" width="112" x="136" y="248"/><path d="m240.373 250.385a194.677 194.677 0 0 1 -101.988 101.988 15.974 15.974 0 0 0 13.615 7.627h80a16 16 0 0 0 16-16v-80a15.974 15.974 0 0 0 -7.627-13.615z" fill="#ffba01"/><rect fill="#8726e2" height="112" rx="16" width="112" x="136" y="136"/><path d="m240.373 138.385a194.677 194.677 0 0 1 -101.988 101.988 15.974 15.974 0 0 0 13.615 7.627h80a16 16 0 0 0 16-16v-80a15.974 15.974 0 0 0 -7.627-13.615z" fill="#691daf"/><rect fill="#703f16" height="112" rx="16" width="112" x="360" y="24"/><path d="m464.373 26.385a194.677 194.677 0 0 1 -101.988 101.988 15.974 15.974 0 0 0 13.615 7.627h80a16 16 0 0 0 16-16v-80a15.974 15.974 0 0 0 -7.627-13.615z" fill="#603813"/><rect fill="#ff9f03" height="112" rx="16" width="112" x="248" y="24"/><path d="m352.373 26.385a194.677 194.677 0 0 1 -101.988 101.988 15.974 15.974 0 0 0 13.615 7.627h80a16 16 0 0 0 16-16v-80a15.974 15.974 0 0 0 -7.627-13.615z" fill="#ff891f"/><rect fill="#48bdff" height="112" rx="16" width="112" x="136" y="24"/><path d="m240.373 26.385a194.677 194.677 0 0 1 -101.988 101.988 15.974 15.974 0 0 0 13.615 7.627h80a16 16 0 0 0 16-16v-80a15.974 15.974 0 0 0 -7.627-13.615z" fill="#3ba4f2"/><rect fill="#3bdabe" height="112" rx="16" width="112" x="24" y="24"/><path d="m128.373 26.385a194.677 194.677 0 0 1 -101.988 101.988 15.974 15.974 0 0 0 13.615 7.627h80a16 16 0 0 0 16-16v-80a15.974 15.974 0 0 0 -7.627-13.615z" fill="#38c1a7"/><rect fill="#e6e6e6" height="112" rx="16" width="112" x="136" y="360"/><rect fill="#fdc47d" height="112" rx="16" width="112" x="360" y="136"/><path d="m464.373 138.385a194.677 194.677 0 0 1 -101.988 101.988 15.974 15.974 0 0 0 13.615 7.627h80a16 16 0 0 0 16-16v-80a15.974 15.974 0 0 0 -7.627-13.615z" fill="#ffb769"/><path d="m240.373 362.385a194.677 194.677 0 0 1 -101.988 101.988 15.974 15.974 0 0 0 13.615 7.627h80a16 16 0 0 0 16-16v-80a15.974 15.974 0 0 0 -7.627-13.615z" fill="#d3d3d3"/><path d="m176 112h32a8 8 0 0 0 0-16h-24v-40a8 8 0 0 0 -16 0v48a8 8 0 0 0 8 8z"/><path d="m184.845 331.578a8 8 0 0 0 14.31 0l24-48a8 8 0 0 0 -14.31-7.156l-16.845 33.689-16.845-33.689a8 8 0 0 0 -14.31 7.156z"/><path d="m40 144h80a23.85 23.85 0 0 0 10.349-2.349 23.85 23.85 0 0 0 -2.349 10.349v80a23.9 23.9 0 0 0 6.131 16 23.9 23.9 0 0 0 -6.131 16v80a23.9 23.9 0 0 0 6.131 16 23.9 23.9 0 0 0 -6.131 16v80a24.028 24.028 0 0 0 24 24h80a24.028 24.028 0 0 0 24-24v-80a23.9 23.9 0 0 0 -6.131-16 23.9 23.9 0 0 0 6.131-16v-80a23.9 23.9 0 0 0 -6.131-16 23.9 23.9 0 0 0 6.131-16v-80a23.85 23.85 0 0 0 -2.349-10.349 23.85 23.85 0 0 0 10.349 2.349h80a23.857 23.857 0 0 0 10.35-2.349 23.85 23.85 0 0 0 -2.35 10.349v80a24.028 24.028 0 0 0 24 24h80a24.028 24.028 0 0 0 24-24v-80a23.9 23.9 0 0 0 -6.131-16 23.9 23.9 0 0 0 6.131-16v-80a24.028 24.028 0 0 0 -24-24h-80a23.9 23.9 0 0 0 -16 6.131 23.9 23.9 0 0 0 -16-6.131h-80a23.9 23.9 0 0 0 -16 6.131 23.9 23.9 0 0 0 -16-6.131h-80a23.9 23.9 0 0 0 -16 6.131 23.9 23.9 0 0 0 -16-6.131h-80a24.028 24.028 0 0 0 -24 24v80a24.028 24.028 0 0 0 24 24zm200 8v80a8.009 8.009 0 0 1 -8 8h-80a8.009 8.009 0 0 1 -8-8v-80a8.009 8.009 0 0 1 8-8h80a8.009 8.009 0 0 1 8 8zm0 112v80a8.009 8.009 0 0 1 -8 8h-80a8.009 8.009 0 0 1 -8-8v-80a8.009 8.009 0 0 1 8-8h80a8.009 8.009 0 0 1 8 8zm0 192a8.009 8.009 0 0 1 -8 8h-80a8.009 8.009 0 0 1 -8-8v-80a8.009 8.009 0 0 1 8-8h80a8.009 8.009 0 0 1 8 8zm224-224a8.009 8.009 0 0 1 -8 8h-80a8.009 8.009 0 0 1 -8-8v-80a8.009 8.009 0 0 1 8-8h80a8.009 8.009 0 0 1 8 8zm-88-200h80a8.009 8.009 0 0 1 8 8v80a8.009 8.009 0 0 1 -8 8h-80a8.009 8.009 0 0 1 -8-8v-80a8.009 8.009 0 0 1 8-8zm-112 0h80a8.009 8.009 0 0 1 8 8v80a8.009 8.009 0 0 1 -8 8h-80a8.009 8.009 0 0 1 -8-8v-80a8.009 8.009 0 0 1 8-8zm-112 0h80a8.009 8.009 0 0 1 8 8v80a8.009 8.009 0 0 1 -8 8h-80a8.009 8.009 0 0 1 -8-8v-80a8.009 8.009 0 0 1 8-8zm-120 8a8.009 8.009 0 0 1 8-8h80a8.009 8.009 0 0 1 8 8v80a8.009 8.009 0 0 1 -8 8h-80a8.009 8.009 0 0 1 -8-8z"/><path d="m431.6 340.284a24.031 24.031 0 0 0 -33.942 0l-57.372 57.373a24 24 0 0 0 0 33.942l57.373 57.373a24.03 24.03 0 0 0 33.942 0l57.369-57.372a24 24 0 0 0 0-33.941zm46.058 80-57.371 57.372a8.009 8.009 0 0 1 -11.314 0l-57.373-57.372a8 8 0 0 1 0-11.313l57.37-57.371a8.01 8.01 0 0 1 11.314 0l57.373 57.373a8 8 0 0 1 0 11.313z"/><path d="m432.97 419.256-8.057 8.057-5.829-5.828 9.2-9.2a8 8 0 0 0 -11.314-11.313l-9.2 9.2-5.83-5.829 8.06-8.059a8 8 0 0 0 -11.314-11.313l-13.716 13.714a8 8 0 0 0 0 11.314l34.285 34.285a8 8 0 0 0 11.314 0l13.714-13.714a8 8 0 0 0 -11.314-11.314z"/><path d="m64 112a8 8 0 0 0 8-8v-8h8a24 24 0 0 0 0-48h-16a8 8 0 0 0 -8 8v48a8 8 0 0 0 8 8zm24-40a8.009 8.009 0 0 1 -8 8h-8v-16h8a8.009 8.009 0 0 1 8 8z"/><path d="m276.422 111.155a8 8 0 0 0 10.733-3.577l2.789-5.578h28.112l2.789 5.578a8 8 0 1 0 14.31-7.156l-24-48a8 8 0 0 0 -14.31 0l-24 48a8 8 0 0 0 3.577 10.733zm27.578-37.266 6.056 12.111h-12.112z"/><path d="m408 82.422v21.578a8 8 0 0 0 16 0v-21.578l14.656-21.984a8 8 0 1 0 -13.312-8.876l-9.344 14.016-9.344-14.016a8 8 0 0 0 -13.312 8.876z"/><path d="m192 224a32 32 0 1 0 -32-32 32.036 32.036 0 0 0 32 32zm0-48a16 16 0 1 1 -16 16 16.019 16.019 0 0 1 16-16z"/></g></svg>